<?xml version="1.0" encoding="utf-8"?>
<!-- Generator: Adobe Illustrator 18.0.0, SVG Export Plug-In . SVG Version: 6.00 Build 0)  -->
<!DOCTYPE svg PUBLIC "-//W3C//DTD SVG 1.1//EN" "http://www.w3.org/Graphics/SVG/1.1/DTD/svg11.dtd">
<svg version="1.1" id="Layer_1" xmlns="http://www.w3.org/2000/svg" xmlns:xlink="http://www.w3.org/1999/xlink" x="0px" y="0px"
	 viewBox="0 -1 16 16" enable-background="new 0 -1 16 16" xml:space="preserve">
<g id="Paragraph_Justify_1">
	<path d="M15.5,0h-15C0.2,0,0,0.2,0,0.5v1C0,1.8,0.2,2,0.5,2h15C15.8,2,16,1.8,16,1.5v-1C16,0.2,15.8,0,15.5,0z"/>
	<path d="M15.5,12h-15C0.2,12,0,12.2,0,12.5v1C0,13.8,0.2,14,0.5,14h15c0.3,0,0.5-0.2,0.5-0.5v-1C16,12.2,15.8,12,15.5,12z"/>
	<path d="M15.5,8h-15C0.2,8,0,8.2,0,8.5v1C0,9.8,0.2,10,0.5,10h15c0.3,0,0.5-0.2,0.5-0.5v-1C16,8.2,15.8,8,15.5,8z"/>
	<path d="M15.5,4h-15C0.2,4,0,4.2,0,4.5v1C0,5.8,0.2,6,0.5,6h15C15.8,6,16,5.8,16,5.5v-1C16,4.2,15.8,4,15.5,4z"/>
</g>
</svg>
