<?xml version="1.0" encoding="utf-8"?>
<!-- Generator: Adobe Illustrator 18.0.0, SVG Export Plug-In . SVG Version: 6.00 Build 0)  -->
<!DOCTYPE svg PUBLIC "-//W3C//DTD SVG 1.1//EN" "http://www.w3.org/Graphics/SVG/1.1/DTD/svg11.dtd">
<svg version="1.1" id="Layer_1" xmlns="http://www.w3.org/2000/svg" xmlns:xlink="http://www.w3.org/1999/xlink" x="0px" y="0px"
	 viewBox="-1 0 16 16" enable-background="new -1 0 16 16" xml:space="preserve">
<g id="Article_2">
	<path d="M13,0H1C0.4,0,0,0.4,0,1v14c0,0.6,0.4,1,1,1h12c0.6,0,1-0.4,1-1V1C14,0.4,13.6,0,13,0z M12,14H9H5H3H2V2h10V14z"/>
	<path d="M4.5,6h5C9.8,6,10,5.8,10,5.5v-1C10,4.2,9.8,4,9.5,4h-5C4.2,4,4,4.2,4,4.5v1C4,5.8,4.2,6,4.5,6z"/>
	<path d="M4.5,9h5C9.8,9,10,8.8,10,8.5v-1C10,7.2,9.8,7,9.5,7h-5C4.2,7,4,7.2,4,7.5v1C4,8.8,4.2,9,4.5,9z"/>
	<path d="M4.5,12h5c0.3,0,0.5-0.2,0.5-0.5v-1c0-0.3-0.2-0.5-0.5-0.5h-5C4.2,10,4,10.2,4,10.5v1C4,11.8,4.2,12,4.5,12z"/>
</g>
</svg>
