<?xml version="1.0" encoding="utf-8"?>
<!-- Generator: Adobe Illustrator 17.0.0, SVG Export Plug-In . SVG Version: 6.00 Build 0)  -->
<!DOCTYPE svg PUBLIC "-//W3C//DTD SVG 1.1//EN" "http://www.w3.org/Graphics/SVG/1.1/DTD/svg11.dtd">
<svg version="1.1" id="Layer_1" xmlns="http://www.w3.org/2000/svg" xmlns:xlink="http://www.w3.org/1999/xlink" x="0px" y="0px"
	 width="16px" height="16px" viewBox="0 0 16 16" style="enable-background:new 0 0 16 16;" xml:space="preserve">
<path d="M15.3,3h-6C9.1,3,9,3.1,9,3.3v0.9c0,0.2,0.1,0.3,0.3,0.3h5.2v7h-13V7c0-0.2-0.1-0.3-0.3-0.3H0.3C0.1,6.7,0,6.8,0,7v5.3
	C0,12.7,0.3,13,0.7,13h14.5c0.4,0,0.7-0.3,0.7-0.7V3.7C16,3.3,15.7,3,15.3,3z"/>
<path d="M6.5,8.1H5.9V4.5h0.5c0.4,0,0.7-0.3,0.7-0.7C7.2,3.3,6.9,3,6.5,3H3.9C3.5,3,3.1,3.3,3.1,3.7c0,0.4,0.3,0.7,0.7,0.7h0.5v2.7
	V8v0.1H3.9v0c-0.4,0-0.7,0.3-0.7,0.7c0,0.4,0.3,0.7,0.7,0.7h2.6c0.4,0,0.7-0.3,0.7-0.7C7.2,8.4,6.9,8.1,6.5,8.1z"/>
</svg>
