<?xml version="1.0" encoding="utf-8"?>
<!-- Generator: Adobe Illustrator 19.0.1, SVG Export Plug-In . SVG Version: 6.00 Build 0)  -->
<!DOCTYPE svg PUBLIC "-//W3C//DTD SVG 1.1//EN" "http://www.w3.org/Graphics/SVG/1.1/DTD/svg11.dtd">
<svg version="1.1" id="Layer_1" xmlns="http://www.w3.org/2000/svg" xmlns:xlink="http://www.w3.org/1999/xlink" x="0px" y="0px"
	 viewBox="0 0 14 16" enable-background="new 0 0 14 16" xml:space="preserve">
<g>
	<path d="M13.6,3.6l-3.3-3.3C10.2,0.2,9.8,0,9.5,0H1C0.4,0,0,0.4,0,1v4.5C0,5.8,0.2,6,0.5,6h1C1.8,6,2,5.8,2,5.5V2h6v3.5
		C8,5.8,8.2,6,8.5,6H12v8H2v-1.5C2,12.2,1.8,12,1.5,12h-1C0.2,12,0,12.2,0,12.5V15c0,0.6,0.4,1,1,1h12c0.6,0,1-0.4,1-1V4.5
		C14,4.2,13.8,3.8,13.6,3.6z"/>
	<path d="M0.5,10H4v1.7c0,0.3,0.3,0.4,0.5,0.2l3.3-2.6c0.2-0.2,0.2-0.5,0-0.6L4.5,6.1C4.3,5.9,4,6,4,6.3V8H0.5C0.2,8,0,8.2,0,8.5v1
		C0,9.8,0.2,10,0.5,10z"/>
</g>
</svg>
