<?xml version="1.0" encoding="utf-8"?>
<!-- Generator: Adobe Illustrator 18.0.0, SVG Export Plug-In . SVG Version: 6.00 Build 0)  -->
<!DOCTYPE svg PUBLIC "-//W3C//DTD SVG 1.1//EN" "http://www.w3.org/Graphics/SVG/1.1/DTD/svg11.dtd">
<svg version="1.1" id="Layer_1" xmlns="http://www.w3.org/2000/svg" xmlns:xlink="http://www.w3.org/1999/xlink" x="0px" y="0px"
	 viewBox="0 -2.5 18 18" enable-background="new 0 -2.5 18 18" xml:space="preserve">
<g id="Cloud_Download_1">
	<path d="M15,5c0-3-2.5-5-5.5-5C6.6,0,4,2,4,5C2.9,5,1.9,5.4,1.2,6.2C0.4,6.9,0,7.9,0,9c0,2.2,1.8,4,4,4h2.5c0.3,0,0.4-0.2,0.2-0.4
		l-0.9-1.2C5.7,11.2,5.3,11,5,11H4c-1,0-2-0.9-2-2c0-0.3,0.1-0.6,0.2-0.9C2.6,7.4,3.2,7,4,7h1.5C5.8,7,6,6.8,6,6.5V5
		C6,4.6,6,4.3,6.2,4c0.1-0.3,0.3-0.7,0.6-0.9C7.4,2.4,8.4,2,9.5,2C11.2,2,13,2.9,13,5v1.5C13,6.8,13.2,7,13.5,7H14
		c0.7,0,1.4,0.5,1.7,1.1C15.9,8.4,16,8.7,16,9c0,1-0.9,2-2,2h-1.1c-0.3,0-0.6,0.2-0.8,0.4l-0.9,1.2c-0.2,0.2-0.1,0.4,0.2,0.4H14
		c2.2,0,4-1.8,4-4C18,7.1,16.7,5.4,15,5z"/>
	<path d="M11.7,8H10V5.5C10,5.2,9.8,5,9.5,5h-1C8.2,5,8,5.2,8,5.5V8H6.3C6,8,5.9,8.2,6.1,8.5l2.6,3.3c0.2,0.2,0.5,0.2,0.6,0l2.6-3.3
		C12.1,8.2,12,8,11.7,8z"/>
</g>
</svg>
