<?xml version="1.0" encoding="utf-8"?>
<!-- Generator: Adobe Illustrator 18.0.0, SVG Export Plug-In . SVG Version: 6.00 Build 0)  -->
<!DOCTYPE svg PUBLIC "-//W3C//DTD SVG 1.1//EN" "http://www.w3.org/Graphics/SVG/1.1/DTD/svg11.dtd">
<svg version="1.1" id="All_glyphs" xmlns="http://www.w3.org/2000/svg" xmlns:xlink="http://www.w3.org/1999/xlink" x="0px" y="0px"
	 viewBox="0 0 92 92" enable-background="new 0 0 92 92" xml:space="preserve">
<g>
	<path d="M11,35C4.9,35,0,39.9,0,46c0,6.1,4.9,11,11,11s11-4.9,11-11C22,39.9,17.1,35,11,35z M46,35c-6.1,0-11,4.9-11,11
		c0,6.1,4.9,11,11,11c6.1,0,11-4.9,11-11C57,39.9,52.1,35,46,35z M81,35c-6.1,0-11,4.9-11,11c0,6.1,4.9,11,11,11c6.1,0,11-4.9,11-11
		C92,39.9,87.1,35,81,35z"/>
</g>
</svg>
