<?xml version="1.0" encoding="utf-8"?>
<!-- Generator: Adobe Illustrator 18.0.0, SVG Export Plug-In . SVG Version: 6.00 Build 0)  -->
<!DOCTYPE svg PUBLIC "-//W3C//DTD SVG 1.1//EN" "http://www.w3.org/Graphics/SVG/1.1/DTD/svg11.dtd">
<svg version="1.1" id="Layer_1" xmlns="http://www.w3.org/2000/svg" xmlns:xlink="http://www.w3.org/1999/xlink" x="0px" y="0px"
	 viewBox="0 156.5 612 479" enable-background="new 0 156.5 612 479" xml:space="preserve">
<path d="M558.8,635.5H53.2C23.9,635.5,0,611.5,0,582.3V209.7c0-29.3,23.9-53.2,53.2-53.2h505.6c29.3,0,53.2,23.9,53.2,53.2v372.5
	C612,611.5,588.1,635.5,558.8,635.5z M585.4,209.7c0-14.6-12-26.6-26.6-26.6H53.2c-14.6,0-26.6,12-26.6,26.6v372.5
	c0,14.6,12,26.6,26.6,26.6h505.6c14.6,0,26.6-12,26.6-26.6V209.7z M479,312.2c-1.3,1.3-1.3,1.3-2.7,1.3l-133,133
	c-21.3,21.3-54.5,21.3-75.8,0l-133-133l0,0l-37.3-38.6c-5.3-5.3-5.3-13.3,0-18.6c5.3-5.3,13.3-5.3,18.6,0l4,4l0,0l167.6,167.6
	c10.6,10.6,26.6,10.6,37.3,0L459,293.6c0-1.3,1.3-1.3,1.3-2.7l38.6-38.6c5.3-5.3,14.6-5.3,20,0s5.3,14.6,0,20L479,312.2z
	 M158.3,457.2c5.3-5.3,13.3-5.3,18.6,0c5.3,5.3,5.3,13.3,0,18.6l-62.5,62.5c-5.3,5.3-13.3,5.3-18.6,0c-5.3-5.3-5.3-13.3,0-18.6
	L158.3,457.2z M449.7,453.2l65.2,65.2c5.3,5.3,5.3,14.6,0,20c-5.3,5.3-14.6,5.3-20,0l-65.2-65.2c-5.3-5.3-5.3-14.6,0-20
	S444.4,447.9,449.7,453.2z"/>
</svg>
