<?xml version="1.0" encoding="utf-8"?>
<!-- Generator: Adobe Illustrator 19.0.1, SVG Export Plug-In . SVG Version: 6.00 Build 0)  -->
<!DOCTYPE svg PUBLIC "-//W3C//DTD SVG 1.1//EN" "http://www.w3.org/Graphics/SVG/1.1/DTD/svg11.dtd">
<svg version="1.1" id="Layer_1" xmlns="http://www.w3.org/2000/svg" xmlns:xlink="http://www.w3.org/1999/xlink" x="0px" y="0px"
	 viewBox="0 0 16 16" enable-background="new 0 0 16 16" xml:space="preserve">
<g>
	<path fill="none" d="M7.9,5.7C8,5.5,8,5.3,8,5c0-1.7-1.3-3-3-3C3.3,2,2,3.3,2,5s1.3,3,3,3c0.2,0,0.4,0,0.7-0.1l0.5-0.1L8,9.6V11h2
		v2h2v1h2v-1.6L7.7,6.3L7.9,5.7z M4.5,6C3.7,6,3,5.3,3,4.5C3,3.7,3.7,3,4.5,3C5.3,3,6,3.7,6,4.5C6,5.3,5.3,6,4.5,6z"/>
	<path d="M15.6,11.2L10,5.6c0-0.2,0-0.4,0-0.6c0-2.8-2.2-5-5-5C2.2,0,0,2.2,0,5c0,2.8,2.2,5,5,5c0.2,0,0.4,0,0.6,0L6,10.4v2.1
		C6,12.8,6.2,13,6.5,13H8v1.5C8,14.8,8.2,15,8.5,15H10v0.5c0,0.3,0.2,0.5,0.5,0.5h5c0.3,0,0.5-0.2,0.5-0.5v-3.4
		C16,11.8,15.8,11.4,15.6,11.2z M14,14h-2v-1h-2v-2H8V9.6L6.2,7.8L5.7,7.9C5.4,8,5.2,8,5,8C3.3,8,2,6.7,2,5s1.3-3,3-3
		c1.7,0,3,1.3,3,3c0,0.3,0,0.5-0.1,0.7L7.7,6.3l6.3,6.1V14z"/>
	<circle cx="4.5" cy="4.5" r="1.5"/>
</g>
</svg>
