<?xml version="1.0" encoding="utf-8"?>
<!-- Generator: Adobe Illustrator 18.0.0, SVG Export Plug-In . SVG Version: 6.00 Build 0)  -->
<!DOCTYPE svg PUBLIC "-//W3C//DTD SVG 1.1//EN" "http://www.w3.org/Graphics/SVG/1.1/DTD/svg11.dtd">
<svg version="1.1" id="Layer_1" xmlns="http://www.w3.org/2000/svg" xmlns:xlink="http://www.w3.org/1999/xlink" x="0px" y="0px"
	 viewBox="0 185.6 612 606.4" enable-background="new 0 185.6 612 606.4" xml:space="preserve">
<path d="M569.9,432.1l-45.3,45.3c-40.5,40.5-98.8,51.8-149,35.6l24.3-24.3c1.6-1.6,1.6-1.6,3.2-3.2c35.6,6.5,72.9-3.2,100.4-30.8
	l45.3-45.3c43.7-43.7,43.7-116.6,0-160.3s-116.6-43.7-160.3,0L340,294.5c-27.5,27.5-37.2,64.8-30.8,100.4c-1.6,1.6-1.6,1.6-3.2,3.2
	l-24.3,24.3c-17.8-50.2-4.9-108.5,35.6-149l45.3-45.3c56.7-56.7,149-56.7,205.6,0S626.6,373.9,569.9,432.1z M238,556.8
	c-6.5-6.5-6.5-16.2,0-22.7l115-115c6.5-6.5,16.2-6.5,22.7,0s6.5,16.2,0,22.7l-115,115C254.2,563.3,242.9,563.3,238,556.8z
	 M212.1,492.1c-35.6-6.5-72.9,3.2-100.4,30.8l-45.3,45.3c-43.7,43.7-43.7,116.6,0,160.3s116.6,43.7,160.3,0l45.3-45.3
	c27.5-27.5,37.2-64.8,30.8-100.4c1.6-1.6,1.6-1.6,3.2-3.2l24.3-24.3c17.8,50.2,4.9,108.5-35.6,149l-45.3,45.3
	c-56.7,56.7-149,56.7-205.6,0s-56.7-149,0-205.6L89,498.6c40.5-40.5,98.8-51.8,149-35.6l-24.3,24.3
	C213.7,490.5,212.1,490.5,212.1,492.1z"/>
</svg>
