<?xml version="1.0" encoding="utf-8"?>
<!-- Generator: Adobe Illustrator 18.0.0, SVG Export Plug-In . SVG Version: 6.00 Build 0)  -->
<!DOCTYPE svg PUBLIC "-//W3C//DTD SVG 1.1//EN" "http://www.w3.org/Graphics/SVG/1.1/DTD/svg11.dtd">
<svg version="1.1" id="Layer_1" xmlns="http://www.w3.org/2000/svg" xmlns:xlink="http://www.w3.org/1999/xlink" x="0px" y="0px"
	 viewBox="0 -4 16 16" enable-background="new 0 -4 16 16" xml:space="preserve">
<path id="Link_1" d="M16,2v4c0,1.1-0.9,2-2,2h-4C9.4,8,9,7.6,9,7s0.4-1,1-1h3c0.6,0,1-0.4,1-1V3c0-0.5-0.4-1-1-1h-2.5L9.9,3H11
	c0.6,0,1,0.5,1,1s-0.4,1-1,1H8.5L6.8,7.6l0,0C6.6,7.8,6.3,8,6,8H2C0.9,8,0,7.1,0,6V2c0-1.1,0.9-2,2-2h4c0.6,0,1,0.4,1,1S6.6,2,6,2H3
	C2.5,2,2,2.5,2,3v2c0,0.6,0.5,1,1,1h2.5l0.7-1H5C4.4,5,4,4.6,4,4s0.4-1,1-1h2.5l1.7-2.5l0,0C9.4,0.2,9.6,0,10,0h4
	C15.1,0,16,0.9,16,2z"/>
</svg>
