<?xml version="1.0" encoding="utf-8"?>
<!-- Generator: Adobe Illustrator 16.0.2, SVG Export Plug-In . SVG Version: 6.00 Build 0)  -->
<!DOCTYPE svg PUBLIC "-//W3C//DTD SVG 1.1//EN" "http://www.w3.org/Graphics/SVG/1.1/DTD/svg11.dtd">
<svg version="1.1" id="Layer_1" xmlns="http://www.w3.org/2000/svg" xmlns:xlink="http://www.w3.org/1999/xlink" x="0px" y="0px"
	 width="16px" height="16px" viewBox="0 0 16 16" style="enable-background:new 0 0 16 16;" xml:space="preserve">
<path d="M15.9,9.5c-0.4-1.4-1.7-2.4-3.1-2.4c-0.3,0-0.6,0-0.9,0.1C11.1,7.4,10.4,8,10,8.7L7.2,7.9L6.5,5.3c0.4-0.2,0.7-0.5,0.9-0.9
	c0.3-0.5,0.4-1.2,0.2-1.8c-0.3-1-1.2-1.7-2.3-1.7C5.2,0.9,5,0.9,4.7,1C4.1,1.1,3.6,1.5,3.3,2.1C3,2.6,2.9,3.2,3.1,3.8
	c0.2,0.9,1,1.6,1.9,1.7l0.7,2.7L4,10C3.6,9.8,3.2,9.7,2.7,9.7c-0.2,0-0.5,0-0.7,0.1C1.3,10,0.7,10.4,0.4,11
	c-0.4,0.6-0.5,1.4-0.3,2.1c0.3,1.2,1.4,2,2.6,2c0.2,0,0.5,0,0.7-0.1c1.4-0.4,2.3-1.9,1.9-3.3c-0.1-0.2-0.1-0.4-0.3-0.6l1.7-1.7
	l2.7,0.7c0,0.4,0,0.8,0.1,1.1c0.4,1.4,1.7,2.4,3.1,2.4c0.3,0,0.6,0,0.9-0.1c0.8-0.2,1.5-0.8,2-1.5S16.1,10.3,15.9,9.5z M4.5,3.5
	C4.5,3.2,4.5,3,4.6,2.8c0.1-0.2,0.3-0.3,0.5-0.4c0.1,0,0.2,0,0.2,0c0.4,0,0.7,0.3,0.8,0.7c0.1,0.2,0,0.5-0.1,0.7
	C6,3.9,5.8,4,5.6,4.1c-0.1,0-0.2,0-0.2,0C5,4.1,4.6,3.8,4.5,3.5z M6.6,8.5L6.6,8.5L6.6,8.5L6.6,8.5z M3,13.6c-0.1,0-0.2,0-0.3,0
	c-0.6,0-1.1-0.4-1.2-0.9c-0.1-0.3,0-0.7,0.1-0.9s0.4-0.5,0.8-0.6c0.1,0,0.2,0,0.3,0c0.6,0,1.1,0.4,1.2,0.9C4.1,12.7,3.7,13.4,3,13.6
	z M13.2,12.1c-0.2,0-0.3,0.1-0.5,0.1c-0.8,0-1.5-0.5-1.7-1.3c-0.3-0.9,0.3-1.9,1.2-2.2c0.2,0,0.3-0.1,0.5-0.1c0.8,0,1.5,0.5,1.7,1.3
	C14.7,10.8,14.2,11.8,13.2,12.1z"/>
</svg>
