<?xml version="1.0" encoding="utf-8"?>
<!-- Generator: Adobe Illustrator 18.0.0, SVG Export Plug-In . SVG Version: 6.00 Build 0)  -->
<!DOCTYPE svg PUBLIC "-//W3C//DTD SVG 1.1//EN" "http://www.w3.org/Graphics/SVG/1.1/DTD/svg11.dtd">
<svg version="1.1" id="All_glyphs" xmlns="http://www.w3.org/2000/svg" xmlns:xlink="http://www.w3.org/1999/xlink" x="0px" y="0px"
	 viewBox="0 0 90 88.7" enable-background="new 0 0 90 88.7" xml:space="preserve">
<g>
	<path d="M20.4,9.6c0,5.3-3.9,9.6-10.4,9.6c-6.1,0-10-4.3-10-9.6C0,4.2,4.1,0,10.3,0C16.5,0,20.3,4.2,20.4,9.6z M0.5,88.7V26.8h19.2
		v61.9H0.5z"/>
	<path d="M31.3,46.6c0-7.7-0.3-14.2-0.5-19.7h16.7l0.9,8.6h0.4c2.5-4.1,8.7-10,19.1-10c12.7,0,22.2,8.5,22.2,26.7v36.6H70.8V54.4
		c0-8-2.8-13.4-9.7-13.4c-5.3,0-8.5,3.7-9.9,7.2c-0.5,1.3-0.6,3-0.6,4.8v35.7H31.3V46.6z"/>
</g>
</svg>
