<?xml version="1.0" encoding="utf-8"?>
<!-- Generator: Adobe Illustrator 17.1.0, SVG Export Plug-In . SVG Version: 6.00 Build 0)  -->
<!DOCTYPE svg PUBLIC "-//W3C//DTD SVG 1.1//EN" "http://www.w3.org/Graphics/SVG/1.1/DTD/svg11.dtd">
<svg version="1.1" id="Layer_1" xmlns="http://www.w3.org/2000/svg" xmlns:xlink="http://www.w3.org/1999/xlink" x="0px" y="0px"
	 viewBox="0 0 16 16" enable-background="new 0 0 16 16" xml:space="preserve">
<path d="M15,8.5C15,8.8,14.8,9,14.5,9h-13C1.2,9,1,8.8,1,8.5v-1C1,7.2,1.2,7,1.5,7h13C14.8,7,15,7.2,15,7.5V8.5z"/>
<path d="M15,12.5c0,0.3-0.2,0.5-0.5,0.5h-13C1.2,13,1,12.8,1,12.5v-1C1,11.2,1.2,11,1.5,11h13c0.3,0,0.5,0.2,0.5,0.5V12.5z"/>
<path d="M15,4.5C15,4.8,14.8,5,14.5,5h-13C1.2,5,1,4.8,1,4.5v-1C1,3.2,1.2,3,1.5,3h13C14.8,3,15,3.2,15,3.5V4.5z"/>
</svg>
