<?xml version="1.0" encoding="utf-8"?>
<!-- Generator: Adobe Illustrator 18.0.0, SVG Export Plug-In . SVG Version: 6.00 Build 0)  -->
<!DOCTYPE svg PUBLIC "-//W3C//DTD SVG 1.1//EN" "http://www.w3.org/Graphics/SVG/1.1/DTD/svg11.dtd">
<svg version="1.1" id="Layer_1" xmlns="http://www.w3.org/2000/svg" xmlns:xlink="http://www.w3.org/1999/xlink" x="0px" y="0px"
	 viewBox="0 -3 16 16" enable-background="new 0 -3 16 16" xml:space="preserve">
<g id="Menu_List_2">
	<path d="M1.5,0h-1C0.2,0,0,0.2,0,0.5v1C0,1.8,0.2,2,0.5,2h1C1.8,2,2,1.8,2,1.5v-1C2,0.2,1.8,0,1.5,0z"/>
	<path d="M15.5,0h-12C3.2,0,3,0.2,3,0.5v1C3,1.8,3.2,2,3.5,2h12C15.8,2,16,1.8,16,1.5v-1C16,0.2,15.8,0,15.5,0z"/>
	<path d="M1.5,4h-1C0.2,4,0,4.2,0,4.5v1C0,5.8,0.2,6,0.5,6h1C1.8,6,2,5.8,2,5.5v-1C2,4.2,1.8,4,1.5,4z"/>
	<path d="M3.5,6h8C11.8,6,12,5.8,12,5.5v-1C12,4.2,11.8,4,11.5,4h-8C3.2,4,3,4.2,3,4.5v1C3,5.8,3.2,6,3.5,6z"/>
	<path d="M1.5,8h-1C0.2,8,0,8.2,0,8.5v1C0,9.8,0.2,10,0.5,10h1C1.8,10,2,9.8,2,9.5v-1C2,8.2,1.8,8,1.5,8z"/>
	<path d="M13.5,8h-10C3.2,8,3,8.2,3,8.5v1C3,9.8,3.2,10,3.5,10h10c0.3,0,0.5-0.2,0.5-0.5v-1C14,8.2,13.8,8,13.5,8z"/>
</g>
</svg>
