<?xml version="1.0" encoding="utf-8"?>
<!-- Generator: Adobe Illustrator 18.0.0, SVG Export Plug-In . SVG Version: 6.00 Build 0)  -->
<!DOCTYPE svg PUBLIC "-//W3C//DTD SVG 1.1//EN" "http://www.w3.org/Graphics/SVG/1.1/DTD/svg11.dtd">
<svg version="1.1" id="Layer_1" xmlns="http://www.w3.org/2000/svg" xmlns:xlink="http://www.w3.org/1999/xlink" x="0px" y="0px"
	 viewBox="-1 -3 16 16" enable-background="new -1 -3 16 16" xml:space="preserve">
<g id="Menu_2">
	<path d="M0.1,2h13.7C14.5,2,15,1.6,15,1s-0.5-1-1.1-1H0.1C-0.5,0-1,0.4-1,1S-0.5,2,0.1,2z"/>
	<path d="M13.9,4H0.1C-0.5,4-1,4.4-1,5s0.5,1,1.1,1h13.7C14.5,6,15,5.6,15,5S14.5,4,13.9,4z"/>
	<path d="M13.9,8H0.1C-0.5,8-1,8.4-1,9s0.5,1,1.1,1h13.7c0.6,0,1.1-0.4,1.1-1S14.5,8,13.9,8z"/>
</g>
</svg>
