<?xml version="1.0" encoding="utf-8"?>
<!-- Generator: Adobe Illustrator 18.1.1, SVG Export Plug-In . SVG Version: 6.00 Build 0)  -->
<!DOCTYPE svg PUBLIC "-//W3C//DTD SVG 1.1//EN" "http://www.w3.org/Graphics/SVG/1.1/DTD/svg11.dtd">
<svg version="1.1" id="Layer_1" xmlns="http://www.w3.org/2000/svg" xmlns:xlink="http://www.w3.org/1999/xlink" x="0px" y="0px"
	 viewBox="-299 389 12 16" enable-background="new -299 389 12 16" xml:space="preserve">
<g id="Lock_2">
	<path d="M-288,395v-1c0-2.8-2.2-5-5-5s-5,2.2-5,5v1c-0.6,0-1,0.4-1,1v8c0,0.6,0.4,1,1,1h10c0.6,0,1-0.4,1-1v-8
		C-287,395.4-287.4,395-288,395z M-296,394c0-1.7,1.3-3,3-3s3,1.3,3,3v1h-1h-4h-1V394z M-289,403h-8v-6h8V403z"/>
	<path d="M-293.5,402h1c0.3,0,0.5-0.2,0.5-0.5V399c0-0.6-0.4-1-1-1s-1,0.4-1,1v2.5C-294,401.8-293.8,402-293.5,402z"/>
</g>
</svg>
