<?xml version="1.0" encoding="utf-8"?>
<!-- Generator: Adobe Illustrator 18.0.0, SVG Export Plug-In . SVG Version: 6.00 Build 0)  -->
<!DOCTYPE svg PUBLIC "-//W3C//DTD SVG 1.1//EN" "http://www.w3.org/Graphics/SVG/1.1/DTD/svg11.dtd">
<svg version="1.1" id="Layer_1" xmlns="http://www.w3.org/2000/svg" xmlns:xlink="http://www.w3.org/1999/xlink" x="0px" y="0px"
	 viewBox="0 180.1 612 611.9" enable-background="new 0 180.1 612 611.9" xml:space="preserve">
<path d="M558.8,792h-306h-26.6h-173C23.9,792,0,768.1,0,738.8v-439c0-29.3,23.9-53.2,53.2-53.2h53.2v-13.3
	c0-29.3,23.9-53.2,53.2-53.2h399.1c29.3,0,53.2,23.9,53.2,53.2v505.6C612,768.1,588.1,792,558.8,792z M585.4,233.2
	c0-14.6-12-26.6-26.6-26.6H159.7c-14.6,0-26.6,12-26.6,26.6v13.3v26.6v399.1h-26.6V273.1H53.2c-14.6,0-26.6,12-26.6,26.6v439
	c0,14.6,12,26.6,26.6,26.6H133h93.1h13.3H298h260.8c14.6,0,26.6-12,26.6-26.6L585.4,233.2L585.4,233.2z M199.6,645.7h319.3v26.6
	H199.6V645.7z M199.6,565.8h319.3v26.6H199.6V565.8z M199.6,486h319.3v26.6H199.6V486z M412.4,406.2h106.4v26.6H412.4V406.2z
	 M412.4,339.7h106.4v26.6H412.4V339.7z M412.4,273.1h106.4v26.6H412.4V273.1z M199.6,273.1h159.7v159.7H199.6V273.1z M226.2,406.2
	h106.4V299.7H226.2V406.2z"/>
</svg>
