<?xml version="1.0" encoding="UTF-8" standalone="no"?>
<svg width="20px" height="20px" viewBox="0 0 20 20" version="1.1" xmlns="http://www.w3.org/2000/svg" xmlns:xlink="http://www.w3.org/1999/xlink" xmlns:sketch="http://www.bohemiancoding.com/sketch/ns">
    <!-- Generator: Sketch 3.4.2 (15857) - http://www.bohemiancoding.com/sketch -->
    <title>Artboard 1</title>
    <desc>Created with Sketch.</desc>
    <defs></defs>
    <g id="icons" stroke="none" stroke-width="1" fill="none" fill-rule="evenodd" sketch:type="MSPage">
        <g id="Artboard-1" sketch:type="MSArtboardGroup" fill="#4A4A4A">
            <g id="single_selected" sketch:type="MSLayerGroup" transform="translate(4.000000, 2.000000)">
                <path d="M11.6214774,11.4590667 C10.9743834,10.4516533 10.190696,9.79714667 9.06931929,9.42656 C9.06931929,9.42656 8.22354396,8.98941333 6.01355922,8.98941333 C3.80322955,8.98941333 2.95710928,9.42656 2.95710928,9.42656 C1.83607753,9.80096 1.05204518,10.4513067 0.404261294,11.4590667 C0.14797619,11.8556533 0.00931318681,12.6533333 0,13.0793867 C0.00344932845,13.19032 0,13.3189333 0,13.4472 L0,14.1821333 L0,13.67496 C0,14.4875467 0.551892552,15.1451733 1.23278999,15.1451733 L10.7922589,15.1451733 C11.4735012,15.1451733 12.0250488,14.4875467 12.0250488,13.67496 L12.0250488,14.1821333 L12.0250488,13.4472 C12.0250488,13.3189333 12.0226343,13.19032 12.0250488,13.0793867 C12.0160806,12.6533333 11.8777625,11.8553067 11.6214774,11.4590667 M2.64356532,3.41258667 C2.64356532,5.29637333 3.81185287,8.06312 6.01355922,8.06312 C8.17628816,8.06312 9.38217338,5.29602667 9.38217338,3.41258667 C9.38217338,1.52914667 7.87412698,0 6.01355922,0 C4.15230159,1.23160741e-15 2.64356532,1.52914667 2.64356532,3.41258667" id="Shape-Copy-2" sketch:type="MSShapeGroup"></path>
            </g>
        </g>
    </g>
</svg>