<?xml version="1.0" encoding="UTF-8" standalone="no"?>
<svg width="29px" height="17px" viewBox="0 0 29 17" version="1.1" xmlns="http://www.w3.org/2000/svg" xmlns:xlink="http://www.w3.org/1999/xlink" xmlns:sketch="http://www.bohemiancoding.com/sketch/ns">
    <!-- Generator: Sketch 3.4.2 (15857) - http://www.bohemiancoding.com/sketch -->
    <title>Shape Copy 4</title>
    <desc>Created with Sketch.</desc>
    <defs></defs>
    <g id="icons" stroke="none" stroke-width="1" fill="none" fill-rule="evenodd" sketch:type="MSPage">
        <g id="Artboard-1" sketch:type="MSArtboardGroup" transform="translate(-3.000000, -2.000000)" fill="#4A4A4A">
            <path d="M22.8681319,15.1612 C22.2210379,14.1537867 21.4373504,13.49928 20.3159737,13.1286933 C20.3159737,13.1286933 19.4701984,12.6915467 17.2602137,12.6915467 C15.049884,12.6915467 14.2037637,13.1286933 14.2037637,13.1286933 C13.082732,13.5030933 12.2986996,14.15344 11.6509158,15.1612 C11.3946306,15.5577867 11.2559676,16.3554667 11.2466545,16.78152 C11.2501038,16.8924533 11.2466545,17.0210667 11.2466545,17.1493333 L11.2466545,17.8842667 L11.2466545,17.3770933 C11.2466545,18.18968 11.798547,18.8473067 12.4794444,18.8473067 L22.0389133,18.8473067 C22.7201557,18.8473067 23.2717033,18.18968 23.2717033,17.3770933 L23.2717033,17.8842667 L23.2717033,17.1493333 C23.2717033,17.0210667 23.2692888,16.8924533 23.2717033,16.78152 C23.262735,16.3554667 23.124417,15.55744 22.8681319,15.1612 M13.8902198,7.11472 C13.8902198,8.99850667 15.0585073,11.7652533 17.2602137,11.7652533 C19.4229426,11.7652533 20.6288278,8.99816 20.6288278,7.11472 C20.6288278,5.23128 19.1207814,3.70213333 17.2602137,3.70213333 C15.398956,3.70213333 13.8902198,5.23128 13.8902198,7.11472 Z M13.5432173,12.26688 C12.9999481,11.5738933 12.34837,11.0986133 11.4760348,10.81088 C11.4760348,10.81088 10.6854487,10.40216 8.62033578,10.40216 C6.55418803,10.40216 5.76360195,10.81088 5.76360195,10.81088 C4.7160409,11.16032 3.98305861,11.7683733 3.3780464,12.70992 C3.13831807,13.0805067 3.00896825,13.8261867 3,14.2245067 C3.0031044,14.3285067 3,14.4484533 3,14.5684 L3,14.7809067 C3,15.5401067 3.5156746,16.1547467 4.15242063,16.1547467 L9.92142247,16.1547467 C10.0035165,15.67392 10.1494231,15.1459467 10.3570726,14.82528 C11.1676648,13.5630667 12.1493437,12.7445867 13.5432173,12.26688 Z M8.61999084,9.53618667 C10.6412973,9.53618667 11.7681929,6.94970667 11.7681929,5.18968 C11.7681929,3.42930667 10.3584524,2 8.61999084,2 C6.88014957,2 5.4700641,3.42930667 5.4700641,5.18968 C5.47040904,6.95005333 6.56246642,9.53618667 8.61999084,9.53618667 Z M20.9861783,12.26688 C21.5294475,11.5738933 22.1810256,11.0986133 23.0533608,10.81088 C23.0533608,10.81088 23.843602,10.40216 25.9090598,10.40216 C27.9748626,10.40216 28.7657937,10.81088 28.7657937,10.81088 C29.8136996,11.16032 30.546337,11.7683733 31.1513492,12.70992 C31.3910775,13.0805067 31.5204274,13.8261867 31.5293956,14.2245067 C31.5262912,14.3285067 31.5293956,14.4484533 31.5293956,14.5684 L31.5293956,14.7809067 C31.5293956,15.5401067 31.013721,16.1547467 30.376975,16.1547467 L24.6083181,16.1547467 C24.5262241,15.67392 24.3803175,15.1459467 24.1726679,14.82528 C23.3617308,13.5630667 22.3800519,12.7445867 20.9861783,12.26688 Z M25.9094048,9.53618667 C23.8880983,9.53618667 22.7612027,6.94970667 22.7612027,5.18968 C22.7612027,3.42930667 24.1709432,2 25.9094048,2 C27.649246,2 29.0593315,3.42930667 29.0593315,5.18968 C29.0593315,6.95005333 27.9672741,9.53618667 25.9094048,9.53618667 Z" id="Shape-Copy-4" sketch:type="MSShapeGroup"></path>
        </g>
    </g>
</svg>