<?xml version="1.0" encoding="utf-8"?>
<!-- Generator: Adobe Illustrator 16.0.2, SVG Export Plug-In . SVG Version: 6.00 Build 0)  -->
<!DOCTYPE svg PUBLIC "-//W3C//DTD SVG 1.1//EN" "http://www.w3.org/Graphics/SVG/1.1/DTD/svg11.dtd">
<svg version="1.1" id="Layer_1" xmlns="http://www.w3.org/2000/svg" xmlns:xlink="http://www.w3.org/1999/xlink" x="0px" y="0px"
	 width="16px" height="16px" viewBox="0 0 16 16" style="enable-background:new 0 0 16 16;" xml:space="preserve">
<g>
	<path d="M15.4,4.8h-1.1V3.7c0-0.3-0.3-0.6-0.6-0.6c-0.3,0-0.6,0.3-0.6,0.6v1.1h-1.1c-0.3,0-0.6,0.3-0.6,0.6s0.3,0.6,0.6,0.6H13v1.1
		c0,0.3,0.3,0.6,0.6,0.6c0.3,0,0.6-0.3,0.6-0.6V6.1h1.1c0.3,0,0.6-0.3,0.6-0.6C16,5.1,15.7,4.8,15.4,4.8z"/>
	<path d="M9.8,10.1c1.1-0.6,1.9-1.6,2.4-2.7l0.1-0.2h-1.7l0,0.1c-0.4,0.7-0.9,1.2-1.6,1.5C8.4,9,8,9.6,8.1,10.2c0,0.6,0.4,1.1,1,1.3
		c1.4,0.5,2.5,1.5,3.2,2.9H2.1c0.6-1.3,1.8-2.4,3.2-2.9c0.6-0.2,1-0.7,1-1.3C6.3,9.6,6,9,5.4,8.7c-1.3-0.6-2-1.9-2-3.4
		c0-2.1,1.7-3.8,3.8-3.8c1.4,0,2.7,0.8,3.4,2l0,0.1h1.7l-0.1-0.2C11.4,1.4,9.4,0,7.2,0c-3,0-5.4,2.4-5.4,5.4c0,2,1.1,3.7,2.8,4.7
		C2.2,11,0.4,13.2,0,15.8L0,16h14.3l0-0.2C13.9,13.2,12.2,11,9.8,10.1z"/>
</g>
</svg>
