<?xml version="1.0" encoding="utf-8"?>
<!-- Generator: Adobe Illustrator 19.0.1, SVG Export Plug-In . SVG Version: 6.00 Build 0)  -->
<!DOCTYPE svg PUBLIC "-//W3C//DTD SVG 1.1//EN" "http://www.w3.org/Graphics/SVG/1.1/DTD/svg11.dtd">
<svg version="1.1" id="Layer_1" xmlns="http://www.w3.org/2000/svg" xmlns:xlink="http://www.w3.org/1999/xlink" x="0px" y="0px"
	 viewBox="0 0 14 14" enable-background="new 0 0 14 14" xml:space="preserve">
<g>
	<path d="M13.5,2H5V0.5C5,0.2,4.8,0,4.5,0h-1C3.2,0,3,0.2,3,0.5V2H0.5C0.2,2,0,2.2,0,2.5v1C0,3.8,0.2,4,0.5,4H3v1.5
		C3,5.8,3.2,6,3.5,6h1C4.8,6,5,5.8,5,5.5V4h8.5C13.8,4,14,3.8,14,3.5v-1C14,2.2,13.8,2,13.5,2z"/>
	<path d="M13.5,10H11V8.5C11,8.2,10.8,8,10.5,8h-1C9.2,8,9,8.2,9,8.5V10H0.5C0.2,10,0,10.2,0,10.5v1C0,11.8,0.2,12,0.5,12H9v1.5
		C9,13.8,9.2,14,9.5,14h1c0.3,0,0.5-0.2,0.5-0.5V12h2.5c0.3,0,0.5-0.2,0.5-0.5v-1C14,10.2,13.8,10,13.5,10z"/>
</g>
</svg>
