<?xml version="1.0" encoding="utf-8"?>
<!-- Generator: Adobe Illustrator 16.0.2, SVG Export Plug-In . SVG Version: 6.00 Build 0)  -->
<!DOCTYPE svg PUBLIC "-//W3C//DTD SVG 1.1//EN" "http://www.w3.org/Graphics/SVG/1.1/DTD/svg11.dtd">
<svg version="1.1" id="Layer_1" xmlns="http://www.w3.org/2000/svg" xmlns:xlink="http://www.w3.org/1999/xlink" x="0px" y="0px"
	 width="16px" height="16px" viewBox="289.6 412.9 16 16" style="enable-background:new 289.6 412.9 16 16;" xml:space="preserve">
<g>
	<path d="M305.5,413.2c-0.1-0.1-0.3-0.2-0.5-0.2h-5.9c-0.2,0-0.4,0.1-0.5,0.2l-8.7,8.7c-0.1,0.1-0.2,0.3-0.2,0.5
		c0,0.2,0.1,0.4,0.2,0.5l5.9,5.9c0.1,0.1,0.3,0.2,0.5,0.2c0.2,0,0.4-0.1,0.5-0.2l8.7-8.7c0.1-0.1,0.2-0.3,0.2-0.5v-5.9
		C305.7,413.5,305.6,413.3,305.5,413.2z M304.2,414.4v4.8l-7.9,7.9l-4.9-4.8l8-7.9H304.2z"/>
	<path d="M299.2,419.4c0.4,0.4,0.9,0.6,1.4,0.6c0.5,0,1-0.2,1.4-0.6l0,0c0.4-0.4,0.6-0.9,0.6-1.4c0-0.5-0.2-1.1-0.6-1.4
		c-0.4-0.4-0.9-0.6-1.4-0.6c-0.5,0-1,0.2-1.4,0.6l0,0c-0.4,0.4-0.6,0.9-0.6,1.4C298.6,418.5,298.8,419,299.2,419.4L299.2,419.4z
		 M300.6,417.4c0.1,0,0.3,0,0.4,0.2c0.1,0.1,0.2,0.3,0.2,0.4c0,0.1-0.1,0.3-0.2,0.4l0,0c-0.1,0.1-0.2,0.2-0.4,0.2s-0.3-0.1-0.4-0.2
		c-0.1-0.1-0.1-0.2-0.1-0.4c0-0.1,0-0.3,0.2-0.4l0,0C300.3,417.5,300.5,417.4,300.6,417.4z"/>
</g>
</svg>
