<?xml version="1.0" encoding="utf-8"?>
<!-- Generator: Adobe Illustrator 18.0.0, SVG Export Plug-In . SVG Version: 6.00 Build 0)  -->
<!DOCTYPE svg PUBLIC "-//W3C//DTD SVG 1.1//EN" "http://www.w3.org/Graphics/SVG/1.1/DTD/svg11.dtd">
<svg version="1.1" id="Layer_1" xmlns="http://www.w3.org/2000/svg" xmlns:xlink="http://www.w3.org/1999/xlink" x="0px" y="0px"
	 viewBox="0 -2 16 16" enable-background="new 0 -2 16 16" xml:space="preserve">
<path id="Video_Camera_1_x2C__Video_1" d="M15.1,1.4L12,3V1c0-0.6-0.4-1-1-1H1C0.4,0,0,0.4,0,1v10c0,0.6,0.4,1,1,1h10
	c0.6,0,1-0.4,1-1V9l3.1,1.6c0.5,0.2,0.9,0,0.9-0.6V2C16,1.4,15.6,1.2,15.1,1.4z M12.9,7.2C12.6,7.1,12.3,7,12,7h-1.5
	C10.2,7,10,7.2,10,7.5V10H2V2h8v2.5C10,4.8,10.2,5,10.5,5H12c0.3,0,0.6-0.1,0.9-0.2L14,4.2v3.5L12.9,7.2z"/>
</svg>
