<?xml version="1.0" encoding="utf-8"?>
<!-- Generator: Adobe Illustrator 18.0.0, SVG Export Plug-In . SVG Version: 6.00 Build 0)  -->
<!DOCTYPE svg PUBLIC "-//W3C//DTD SVG 1.1//EN" "http://www.w3.org/Graphics/SVG/1.1/DTD/svg11.dtd">
<svg version="1.1" id="Layer_1" xmlns="http://www.w3.org/2000/svg" xmlns:xlink="http://www.w3.org/1999/xlink" x="0px" y="0px"
	 viewBox="0 -3 18 18" enable-background="new 0 -3 18 18" xml:space="preserve">
<g id="Eye_2_x2C__View_2">
	<path d="M17.7,5.5C15.5,2,12.3,0,9,0C5.5,0,2.2,2.1,0.3,5.5L0,6l0.3,0.5C2.3,9.9,5.7,12,9,12c3.2,0,6.5-2,8.7-5.4L18,6.1L17.7,5.5z
		 M9,10c-2.4,0-5-1.6-6.7-4C3.9,3.5,6.4,2,9,2c2.4,0,4.9,1.5,6.7,4.1C13.9,8.5,11.4,10,9,10z"/>
	<ellipse cx="9" cy="6" rx="2.9" ry="3"/>
</g>
</svg>
