<?xml version="1.0" encoding="utf-8"?>
<!-- Generator: Adobe Illustrator 18.1.0, SVG Export Plug-In . SVG Version: 6.00 Build 0)  -->
<!DOCTYPE svg PUBLIC "-//W3C//DTD SVG 1.1//EN" "http://www.w3.org/Graphics/SVG/1.1/DTD/svg11.dtd">
<svg version="1.1" id="Layer_1" xmlns="http://www.w3.org/2000/svg" xmlns:xlink="http://www.w3.org/1999/xlink" x="0px" y="0px"
	 viewBox="0 0 18 17" enable-background="new 0 0 18 17" xml:space="preserve">
<g id="Exclamation_Point_1_x2C__Warning_1_x2C__Caution_1">
	<path fill="#010101" d="M8,7.5v3C8,10.7,8.2,11,8.5,11h1c0.3,0,0.5-0.2,0.5-0.5v-3C10,7.2,9.8,7,9.5,7h-1C8.2,7,8,7.2,8,7.5z"/>
	<path fill="#010101" d="M9.5,12h-1C8.2,12,8,12.2,8,12.5v1C8,13.7,8.2,14,8.5,14h1c0.3,0,0.5-0.2,0.5-0.5v-1C10,12.2,9.8,12,9.5,12
		z"/>
	<path fill="#010101" d="M17.9,15.5l-8-15c-0.3-0.7-1.4-0.7-1.8,0l-8,15c-0.2,0.3-0.2,0.7,0,1C0.3,16.8,0.6,17,1,17h16
		c0.4,0,0.7-0.2,0.9-0.5C18,16.2,18,15.8,17.9,15.5z M2.7,15L9,3.1L15.3,15H2.7z"/>
</g>
</svg>
