<?xml version="1.0" encoding="utf-8"?>
<!-- Generator: Adobe Illustrator 17.0.0, SVG Export Plug-In . SVG Version: 6.00 Build 0)  -->
<!DOCTYPE svg PUBLIC "-//W3C//DTD SVG 1.1//EN" "http://www.w3.org/Graphics/SVG/1.1/DTD/svg11.dtd">
<svg version="1.1" id="Layer_1" xmlns="http://www.w3.org/2000/svg" xmlns:xlink="http://www.w3.org/1999/xlink" x="0px" y="0px"
	 width="16px" height="16px" viewBox="0 0 16 16" style="enable-background:new 0 0 16 16;" xml:space="preserve">
<path d="M13.4,5.7l-0.2,0V5.5c0-2.5-2.1-4.3-4.8-4.3c-2.4,0-4.8,1.6-4.8,4.3v0.2H3.4c-1,0-1.8,0.4-2.4,1C0.4,7.4,0,8.2,0,9.2
	c0,1.9,1.5,3.4,3.4,3.4h2.3c0,0,0,0,0,0l-0.8-1.1c-0.1-0.1-0.3-0.3-0.5-0.3H3.4c-1.1,0-2.1-1-2.1-2.1c0-0.3,0.1-0.6,0.2-0.9
	C2,7.5,2.6,7.1,3.4,7.1h1.4C4.9,7.1,5,7,5,6.9V5.5c0-0.4,0-0.7,0.2-1c0.1-0.2,0.3-0.6,0.6-0.9c0.6-0.7,1.5-1.1,2.6-1.1
	c1.7,0,3.4,0.9,3.4,3v1.4c0,0.1,0.1,0.2,0.2,0.2h0.5c0.7,0,1.4,0.5,1.8,1.1c0.2,0.3,0.3,0.6,0.3,0.9c0,1.1-1,2.1-2.1,2.1h-1
	c-0.2,0-0.4,0.2-0.6,0.3l-0.8,1.1h2.4c1.9,0,3.4-1.5,3.4-3.4C16,7.6,14.9,6.1,13.4,5.7z"/>
<path d="M10.5,8.8l-2.4-3l0,0l0,0l0,0c0,0-0.1,0-0.1,0.1l-2.4,3c0,0,0,0.1,0,0.1c0,0,0,0,0,0c0,0,0,0,0,0h1.6h0.2v0.2v2.3
	c0,0.1,0.1,0.2,0.2,0.2h0.9c0.1,0,0.2-0.1,0.2-0.2V9.1V8.9h0.2h1.6C10.5,8.9,10.5,8.9,10.5,8.8C10.5,8.9,10.5,8.8,10.5,8.8z"/>
</svg>
