<?xml version="1.0" encoding="utf-8"?>
<!-- Generated by IcoMoon.io -->
<!DOCTYPE svg PUBLIC "-//W3C//DTD SVG 1.1//EN" "http://www.w3.org/Graphics/SVG/1.1/DTD/svg11.dtd">
<svg version="1.1" xmlns="http://www.w3.org/2000/svg" xmlns:xlink="http://www.w3.org/1999/xlink" width="32" height="32" viewBox="0 0 32 32">
<path fill="#444" d="M16 1.778c-7.855 0-14.222 6.367-14.222 14.222s6.367 14.222 14.222 14.222 14.222-6.367 14.222-14.222-6.367-14.222-14.222-14.222zM5.333 16c0-2.301 0.74-4.428 1.984-6.173l14.856 14.856c-1.745 1.244-3.872 1.983-6.173 1.983-5.882 0-10.667-4.785-10.667-10.667zM24.683 22.173l-14.856-14.856c1.745-1.244 3.871-1.984 6.173-1.984 5.882 0 10.667 4.785 10.667 10.667 0 2.301-0.74 4.428-1.983 6.173z"></path>
</svg>
