<?xml version="1.0" encoding="utf-8"?>
<!-- Generated by IcoMoon.io -->
<!DOCTYPE svg PUBLIC "-//W3C//DTD SVG 1.1//EN" "http://www.w3.org/Graphics/SVG/1.1/DTD/svg11.dtd">
<svg version="1.1" xmlns="http://www.w3.org/2000/svg" xmlns:xlink="http://www.w3.org/1999/xlink" width="1024" height="1024" viewBox="0 0 1024 1024">
<g id="icomoon-ignore">
</g>
<path d="M940.8 211.2l-211.2-198.4c-6.4-12.8-25.6-12.8-44.8-12.8h-544c-38.4 0-76.8 6.4-76.8 44.8v288c0 19.2 25.6 51.2 44.8 51.2h64c19.2 0 19.2-32 19.2-51.2v-204.8h384v204.8c0 19.2 25.6 51.2 44.8 51.2h211.2v512.001h-640v-115.2c0-19.2 0-12.8-19.2-12.8h-64c-19.2 0-44.8-6.4-44.8 12.8v160c0 38.4 38.4 83.2 76.8 83.2h768c38.4 0 51.2-44.8 51.2-83.2v-672c0-19.2-6.4-44.8-19.2-57.6z"></path>
<path d="M108.8 640h211.2v89.6c0 19.2 25.6 25.6 38.4 12.8l211.2-166.4c12.8-12.8 12.8-32 0-38.4l-211.2-166.4c-12.8-12.8-38.4-6.4-38.4 12.8v128h-211.2c-19.2 0-44.8-6.4-44.8 12.8v64c0 19.2 25.6 51.2 44.8 51.2z"></path>
</svg>
