<?xml version="1.0" encoding="utf-8"?>
<!-- Generated by IcoMoon.io -->
<!DOCTYPE svg PUBLIC "-//W3C//DTD SVG 1.1//EN" "http://www.w3.org/Graphics/SVG/1.1/DTD/svg11.dtd">
<svg version="1.1" xmlns="http://www.w3.org/2000/svg" xmlns:xlink="http://www.w3.org/1999/xlink" width="1146" height="1024" viewBox="0 0 1146 1024">
<g id="icomoon-ignore">
</g>
<path d="M85.809 96.382c0.955 38.4 2.675 137.934 3.821 221.039l2.484 151.499 528.43 528.43 62.854-64.191c34.77-35.152 133.922-135.642 220.657-223.331s157.612-160.86 157.612-162.77c0-1.91-32.287-34.197-71.642-71.642s-157.612-153.791-262.687-258.484l-191.236-190.281h-451.821l1.528 69.731zM302.644 96.764c73.361 30.758 78.71 135.26 8.979 171.176-94.185 48.334-183.594-77.182-107.176-150.352 25.982-24.836 67.439-33.624 98.197-20.824z"></path>
</svg>
