<?xml version="1.0" encoding="utf-8"?>
<!-- Generated by IcoMoon.io -->
<!DOCTYPE svg PUBLIC "-//W3C//DTD SVG 1.1//EN" "http://www.w3.org/Graphics/SVG/1.1/DTD/svg11.dtd">
<svg version="1.1" xmlns="http://www.w3.org/2000/svg" xmlns:xlink="http://www.w3.org/1999/xlink" width="16" height="16" viewBox="0 0 16 16">
<path d="M14.438 8.773v-1.545l-1.45-0.515c-0.122-0.472-0.31-0.917-0.552-1.326l0.002-0.002 0.662-1.39-1.092-1.092-1.392 0.663c-0.409-0.242-0.855-0.43-1.326-0.552l-0.515-1.45h-1.545l-0.515 1.45c-0.472 0.122-0.917 0.31-1.326 0.552l-0.002-0.002-1.39-0.661-1.092 1.092 0.661 1.39 0.002 0.002c-0.242 0.41-0.43 0.855-0.552 1.326l-1.45 0.515v1.545l1.45 0.515c0.122 0.472 0.31 0.917 0.552 1.326l-0.002 0.002-0.661 1.39 1.092 1.092 1.392-0.663c0.409 0.242 0.855 0.43 1.326 0.552l0.515 1.45h1.545l0.515-1.45c0.472-0.122 0.917-0.31 1.326-0.552l0.002 0.002 1.39 0.662 1.092-1.092-0.662-1.39-0.002-0.002c0.242-0.409 0.43-0.855 0.552-1.326l1.45-0.515zM8 10.575c-1.422 0-2.575-1.153-2.575-2.575s1.153-2.575 2.575-2.575 2.575 1.153 2.575 2.575c0 1.422-1.153 2.575-2.575 2.575z"></path>
</svg>
