<?xml version="1.0" encoding="utf-8"?>
<!-- Generator: Adobe Illustrator 18.0.0, SVG Export Plug-In . SVG Version: 6.00 Build 0)  -->
<!DOCTYPE svg PUBLIC "-//W3C//DTD SVG 1.1//EN" "http://www.w3.org/Graphics/SVG/1.1/DTD/svg11.dtd">
<svg version="1.1" id="Layer_1" xmlns="http://www.w3.org/2000/svg" xmlns:xlink="http://www.w3.org/1999/xlink" x="0px" y="0px"
	 viewBox="0 270 612 612" enable-background="new 0 270 612 612" xml:space="preserve">
<path d="M558.8,802.2h-53.2v-26.6h53.2c14.6,0,26.6-12,26.6-26.6V469.6H479c-29.3,0-53.2-23.9-53.2-53.2v-93.1v-26.6H186.3
	c-14.6,0-26.6,12-26.6,26.6H133c0-29.4,24-53.3,53.3-53.3c0,0,102.4,0,199.6,0c2.7,0,5.3,0,6.7,0c5.3,0,9.3,0,13.3,0H443
	l163.6,176.9l-1.3,5.3l6.7,4v39.9V749C612,778.2,588.1,802.2,558.8,802.2z M452.3,319.2v97.1c0,14.6,12,26.6,26.6,26.6h90.5
	L452.3,319.2z M259.4,349.8c5.3,0,9.3,0,13.3,0H310l163.6,176.9l-1.3,5.3l6.7,4v5.3V576v252.8c0,29.3-23.9,53.2-53.2,53.2H53.2
	C23.9,882,0,858.1,0,828.8V403c0-29.3,23.9-53.2,53.2-53.2c0,0,102.4,0,199.6,0C255.4,349.8,258.1,349.8,259.4,349.8z M319.3,399.1
	v97.1c0,14.6,12,26.6,26.6,26.6h90.5L319.3,399.1z M26.6,403v425.7c0,14.6,12,26.6,26.6,26.6h372.5c14.6,0,26.6-12,26.6-26.6V549.4
	H345.9c-29.3,0-53.2-23.9-53.2-53.2V376.4H53.2C38.6,376.4,26.6,388.4,26.6,403z M93.1,562.7h133v26.6h-133
	C93.1,589.3,93.1,562.7,93.1,562.7z M93.1,482.9h133v26.6h-133C93.1,509.5,93.1,482.9,93.1,482.9z M385.8,669.1H93.1v-26.6h292.7
	L385.8,669.1L385.8,669.1z M385.8,749H93.1v-26.6h292.7L385.8,749L385.8,749z"/>
</svg>
