<?xml version="1.0" encoding="utf-8"?>
<!-- Generator: Adobe Illustrator 18.0.0, SVG Export Plug-In . SVG Version: 6.00 Build 0)  -->
<!DOCTYPE svg PUBLIC "-//W3C//DTD SVG 1.1//EN" "http://www.w3.org/Graphics/SVG/1.1/DTD/svg11.dtd">
<svg version="1.1" id="Layer_1" xmlns="http://www.w3.org/2000/svg" xmlns:xlink="http://www.w3.org/1999/xlink" x="0px" y="0px"
	 viewBox="0 0 46 46" enable-background="new 0 0 46 46" xml:space="preserve">
<path fill-rule="evenodd" clip-rule="evenodd" d="M42,46H19h-2H4c-2.2,0-4-1.8-4-4V9c0-2.2,1.8-4,4-4h4V4c0-2.2,1.8-4,4-4h30
	c2.2,0,4,1.8,4,4v38C46,44.2,44.2,46,42,46z M44,4c0-1.1-0.9-2-2-2H12c-1.1,0-2,0.9-2,2v1v2v30H8V7H4C2.9,7,2,7.9,2,9v33
	c0,1.1,0.9,2,2,2h6h7h1h4.4H42c1.1,0,2-0.9,2-2V4z M15,35h24v2H15V35z M15,29h24v2H15V29z M15,23h24v2H15V23z M31,17h8v2h-8V17z
	 M31,12h8v2h-8V12z M31,7h8v2h-8V7z M15,7h12v12H15V7z M17,17h8V9h-8V17z"/>
</svg>
