<?xml version="1.0" encoding="utf-8"?>
<!-- Generator: Adobe Illustrator 18.0.0, SVG Export Plug-In . SVG Version: 6.00 Build 0)  -->
<!DOCTYPE svg PUBLIC "-//W3C//DTD SVG 1.1//EN" "http://www.w3.org/Graphics/SVG/1.1/DTD/svg11.dtd">
<svg version="1.1" id="Layer_1" xmlns="http://www.w3.org/2000/svg" xmlns:xlink="http://www.w3.org/1999/xlink" x="0px" y="0px"
	 viewBox="0 270.4 612 656.8" enable-background="new 0 270.4 612 656.8" xml:space="preserve">
<path d="M462.7,763c-82.1,0-149.3-67.2-149.3-149.3s67.2-149.3,149.3-149.3S612,531.6,612,613.7S544.8,763,462.7,763z M462.7,494.3
	c-65.7,0-119.4,53.7-119.4,119.4S397,733.1,462.7,733.1s119.4-53.7,119.4-119.4S528.4,494.3,462.7,494.3z M522.4,628.7h-44.8v44.8
	c0,9-6,14.9-14.9,14.9c-9,0-14.9-6-14.9-14.9v-44.8H403c-9,0-14.9-6-14.9-14.9c0-9,6-14.9,14.9-14.9h44.8v-44.8
	c0-9,6-14.9,14.9-14.9c9,0,14.9,6,14.9,14.9v44.7h44.8c9,0,14.9,6,14.9,14.9C537.4,622.7,531.4,628.7,522.4,628.7z M231.4,300.3
	c-86.6,0-156.7,91.1-156.7,201.5c0,114.9,95.5,201.5,156.7,201.5c19.4,0,41.8-9,64.2-23.9c3,9,9,17.9,13.4,26.9
	c-25.4,16.4-52.2,26.9-77.6,26.9c-82.1,0-186.6-103-186.6-231.4s83.6-231.4,186.6-231.4c86.6,0,158.2,73.1,180.6,171.7
	c-10.4,3-19.4,7.5-28.4,10.4C365.7,365.9,304.5,300.3,231.4,300.3z M88.1,686.9c-34.3,19.4-58.2,56.7-58.2,98.5
	c0,61.2,50.8,112,112,112H321c59.7,0,109-47.8,112-107.5c9,1.5,19.4,3,29.9,3c-4.5,74.6-65.7,134.3-141.8,134.3H141.8
	C64.2,927.2,0,863,0,785.4c0-52.2,28.4-97,68.7-120.9C74.6,671.9,80.6,679.4,88.1,686.9z"/>
</svg>
