<?xml version="1.0" encoding="utf-8"?>
<!-- Generator: Adobe Illustrator 18.0.0, SVG Export Plug-In . SVG Version: 6.00 Build 0)  -->
<!DOCTYPE svg PUBLIC "-//W3C//DTD SVG 1.1//EN" "http://www.w3.org/Graphics/SVG/1.1/DTD/svg11.dtd">
<svg version="1.1" id="Layer_1" xmlns="http://www.w3.org/2000/svg" xmlns:xlink="http://www.w3.org/1999/xlink" x="0px" y="0px"
	 viewBox="0 270 612 612" enable-background="new 0 270 612 612" xml:space="preserve">
<path d="M306,882C137,882,0,745,0,576s137-306,306-306s306,137,306,306S475,882,306,882z M306,296.6
	C151.7,296.6,26.6,421.7,26.6,576S151.7,855.4,306,855.4S585.4,730.3,585.4,576S460.3,296.6,306,296.6z M505.6,589.3H357.9
	c-5.3,22.6-26.6,39.9-51.9,39.9c-29.3,0-53.2-23.9-53.2-53.2c0-25.3,17.3-45.2,39.9-51.9V376.4c0-8,5.3-13.3,13.3-13.3
	s13.3,5.3,13.3,13.3v147.7c18.6,5.3,33.3,20,38.6,38.6h147.7c8,0,13.3,5.3,13.3,13.3S513.5,589.3,505.6,589.3z M306,549.4
	c-14.6,0-26.6,12-26.6,26.6s12,26.6,26.6,26.6s26.6-12,26.6-26.6C332.6,561.4,320.6,549.4,306,549.4z"/>
</svg>
