<?xml version="1.0" encoding="utf-8"?>
<!-- Generator: Adobe Illustrator 18.0.0, SVG Export Plug-In . SVG Version: 6.00 Build 0)  -->
<!DOCTYPE svg PUBLIC "-//W3C//DTD SVG 1.1//EN" "http://www.w3.org/Graphics/SVG/1.1/DTD/svg11.dtd">
<svg version="1.1" id="Rosters" xmlns="http://www.w3.org/2000/svg" xmlns:xlink="http://www.w3.org/1999/xlink" x="0px" y="0px"
	 viewBox="0 270 612 612" enable-background="new 0 270 612 612" xml:space="preserve">
<path d="M412.4,882c-110.4,0-199.6-89.1-199.6-199.6S302,482.9,412.4,482.9S612,572,612,682.4S522.9,882,412.4,882z M412.4,509.5
	c-95.8,0-173,77.2-173,173s77.2,173,173,173s173-77.2,173-173S508.2,509.5,412.4,509.5z M532.2,695.7h-82.5
	c-5.3,16-20,26.6-37.3,26.6c-22.6,0-39.9-17.3-39.9-39.9c0-17.3,10.6-31.9,26.6-37.3v-82.5c0-8,5.3-13.3,13.3-13.3
	s13.3,5.3,13.3,13.3v82.5c10.6,4,20,13.3,23.9,23.9h82.5c8,0,13.3,5.3,13.3,13.3S540.2,695.7,532.2,695.7z M412.4,669.1
	c-8,0-13.3,5.3-13.3,13.3s5.3,13.3,13.3,13.3s13.3-5.3,13.3-13.3S420.4,669.1,412.4,669.1z M252.8,456.3c20,0,37.3,14.6,39.9,34.6
	c-18.6,12-35.9,26.6-50.6,42.6c-17.3-4-29.3-18.6-29.3-37.3C212.9,473.6,230.2,456.3,252.8,456.3z M252.8,509.5
	c8,0,13.3-5.3,13.3-13.3s-5.3-13.3-13.3-13.3c-8,0-13.3,5.3-13.3,13.3S244.8,509.5,252.8,509.5z M133,536.1
	c-22.6,0-39.9-17.3-39.9-39.9c0-22.6,17.3-39.9,39.9-39.9s39.9,17.3,39.9,39.9C172.9,518.8,155.7,536.1,133,536.1z M133,482.9
	c-8,0-13.3,5.3-13.3,13.3s5.3,13.3,13.3,13.3s13.3-5.3,13.3-13.3S141,482.9,133,482.9z M133,682.4c-22.6,0-39.9-17.3-39.9-39.9
	c0-22.6,17.3-39.9,39.9-39.9s39.9,17.3,39.9,39.9C173,665.1,155.7,682.4,133,682.4z M133,629.2c-8,0-13.3,5.3-13.3,13.3
	s5.3,13.3,13.3,13.3s13.3-5.3,13.3-13.3S141,629.2,133,629.2z M479,363.1c0-14.6-12-26.6-26.6-26.6h-26.6
	c0,22.6-17.3,39.9-39.9,39.9S346,359.1,346,336.5h-53.2c0,22.6-17.3,39.9-39.9,39.9S213,359.1,213,336.5h-53.2
	c0,22.6-17.3,39.9-39.9,39.9S80,359.1,80,336.5H53.2c-14.6,0-26.6,12-26.6,26.6v399.1c0,14.6,12,26.6,26.6,26.6h159.7
	c5.3,9.3,10.6,18.6,17.3,26.6h-177C23.9,815.5,0,791.5,0,762.3V363.1c0-29.3,23.9-53.2,53.2-53.2h26.6c0-22.6,17.3-39.9,39.9-39.9
	s39.9,17.3,39.9,39.9h53.2c0-22.6,17.3-39.9,39.9-39.9s39.9,17.3,39.9,39.9h53.2c0-22.6,17.3-39.9,39.9-39.9s39.9,17.3,39.9,39.9
	h26.6c29.3,0,53.2,23.9,53.2,53.2v113.1c-8-4-17.3-8-26.6-10.6V363.1H479z M133,309.9c0-8-5.3-13.3-13.3-13.3s-13.3,5.3-13.3,13.3
	v26.6c0,8,5.3,13.3,13.3,13.3s13.3-5.3,13.3-13.3V309.9z M266.1,309.9c0-8-5.3-13.3-13.3-13.3c-8,0-13.3,5.3-13.3,13.3v26.6
	c0,8,5.3,13.3,13.3,13.3c8,0,13.3-5.3,13.3-13.3V309.9z M399.1,309.9c0-8-5.3-13.3-13.3-13.3s-13.3,5.3-13.3,13.3v26.6
	c0,8,5.3,13.3,13.3,13.3s13.3-5.3,13.3-13.3V309.9z"/>
</svg>
