<?xml version="1.0" encoding="utf-8"?>
<!-- Generator: Adobe Illustrator 18.0.0, SVG Export Plug-In . SVG Version: 6.00 Build 0)  -->
<!DOCTYPE svg PUBLIC "-//W3C//DTD SVG 1.1//EN" "http://www.w3.org/Graphics/SVG/1.1/DTD/svg11.dtd">
<svg version="1.1" id="Layer_1" xmlns="http://www.w3.org/2000/svg" xmlns:xlink="http://www.w3.org/1999/xlink" x="0px" y="0px"
	 viewBox="0 270 612 612" enable-background="new 0 270 612 612" xml:space="preserve">
<path d="M612,828.8c0,29.3-23.9,53.2-53.2,53.2H53.2C23.9,882,0,858.1,0,828.8V686.4c-1.3-4,0-8,2.7-13.3L79.9,544v55.9l-38.6,69.2
	h399.1h133l-41.2-78.5v-58.5l77.2,141c2.7,4,2.7,6.7,2.7,9.3l0,0v146.4L612,828.8L612,828.8z M26.6,669.1L26.6,669.1v13.3l0,0V669.1
	z M399.1,709v-13.3v-26.6H212.9v26.6V709v26.6c0,8,5.3,13.3,13.3,13.3h159.7c8,0,13.3-5.3,13.3-13.3L399.1,709L399.1,709z
	 M425.7,695.7V749c0,14.6-12,26.6-26.6,26.6H212.9c-14.6,0-26.6-12-26.6-26.6v-53.2H26.6v133c0,14.6,12,26.6,26.6,26.6h505.6
	c14.6,0,26.6-12,26.6-26.6v-133L425.7,695.7L425.7,695.7z M479,469.6H372.5c-29.3,0-53.2-23.9-53.2-53.2V296.6H159.7
	c-14.6,0-26.6,12-26.6,26.6v319.3h-26.6V323.2c0-29.3,23.9-53.2,53.2-53.2c0,0,26.6,0,119.7,0c2.7,0,4,0,6.7,0c5.3,0,9.3,0,13.3,0
	h37.3l163.6,176.9l-1.3,5.3l6.7,4v5.3v34.6v146.3H479V469.6z M345.9,319.2v97.1c0,14.6,12,26.6,26.6,26.6H463L345.9,319.2z"/>
</svg>
