<?xml version="1.0" encoding="utf-8"?>
<!-- Generator: Adobe Illustrator 19.0.0, SVG Export Plug-In . SVG Version: 6.00 Build 0)  -->
<svg version="1.1" id="Layer_1" xmlns="http://www.w3.org/2000/svg" xmlns:xlink="http://www.w3.org/1999/xlink" x="0px" y="0px"
	 viewBox="-214.1 374 46 46" style="enable-background:new -214.1 374 46 46;" xml:space="preserve">
<path d="M-184.2,419.6h-18.4c-2.3,0-4.2-1.9-4.2-4.2v-31.8c0-2.3,1.9-4.2,4.2-4.2h1.8v1.8h-1.8c-1.3,0-2.4,1.1-2.4,2.4v31.8
	c0,1.3,1.1,2.4,2.4,2.4h17.6l10.4-9.5v-24.7c0-1.3-1.1-2.4-2.4-2.4h-1.8v-1.8h1.8c2.3,0,4.2,1.9,4.2,4.2v25.4L-184.2,419.6z"/>
<g>
	<path d="M-196.7,392.1c-1.7,0-3-1.3-3-3c0-1.7,1.3-3,3-3s3,1.3,3,3C-193.7,390.8-195.1,392.1-196.7,392.1z M-196.7,388.1
		c-0.6,0-1,0.4-1,1s0.4,1,1,1s1-0.4,1-1S-196.2,388.1-196.7,388.1z"/>
	<rect x="-191.9" y="388.3" width="11.8" height="2"/>
</g>
<g>
	<path d="M-196.7,399.6c-1.7,0-3-1.3-3-3s1.3-3,3-3s3,1.3,3,3S-195.1,399.6-196.7,399.6z M-196.7,395.6c-0.6,0-1,0.4-1,1s0.4,1,1,1
		s1-0.4,1-1S-196.2,395.6-196.7,395.6z"/>
	<rect x="-191.9" y="395.8" width="11.8" height="2"/>
</g>
<g>
	<path d="M-196.7,407.1c-1.7,0-3-1.3-3-3s1.3-3,3-3s3,1.3,3,3S-195.1,407.1-196.7,407.1z M-196.7,403.1c-0.6,0-1,0.4-1,1s0.4,1,1,1
		s1-0.4,1-1S-196.2,403.1-196.7,403.1z"/>
	<rect x="-191.9" y="403.3" width="7.4" height="2"/>
</g>
<path d="M-181.1,383h-17.3c-0.5,0-0.9-0.4-0.9-0.9v-1.3c0,0,0-0.1,0-0.1v-1c0-1.3,1.1-2.4,2.4-2.4l3.9,0c0-1.8,1.5-3.3,3.3-3.3
	c1.8,0,3.3,1.5,3.3,3.3l0,0h3.9c1.3,0,2.4,1.1,2.4,2.4v1c0,0,0,0.1,0,0.1v1.3C-180.2,382.7-180.6,383-181.1,383z M-197.5,381.3h15.6
	v-0.5c0,0,0-0.1,0-0.1v-1c0-0.3-0.3-0.6-0.6-0.6h-4.8c-0.5,0-0.9-0.4-0.9-0.9v-0.9c0-0.8-0.7-1.5-1.5-1.5c-0.9,0-1.5,0.7-1.5,1.5
	v0.9c0,0.5-0.4,0.9-0.9,0.9h-4.8c-0.3,0-0.6,0.3-0.6,0.6v1c0,0,0,0.1,0,0.1V381.3z"/>
<path d="M-184.7,419.6l0.3-0.4l0.3,0.1l11.3-10.4v-1.9h-1.7v0.8h-7.6c-1.9,0-3.4,1.5-3.4,3.4v6.8h-1.2v1.7h1.7H-184.7z
	 M-183.8,411.2c0-0.9,0.8-1.7,1.7-1.7h6.2l-7.9,7.5V411.2z"/>
</svg>
