<?xml version="1.0" encoding="utf-8"?>
<!-- Generator: Adobe Illustrator 18.0.0, SVG Export Plug-In . SVG Version: 6.00 Build 0)  -->
<!DOCTYPE svg PUBLIC "-//W3C//DTD SVG 1.1//EN" "http://www.w3.org/Graphics/SVG/1.1/DTD/svg11.dtd">
<svg version="1.1" id="Layer_1" xmlns="http://www.w3.org/2000/svg" xmlns:xlink="http://www.w3.org/1999/xlink" x="0px" y="0px"
	 viewBox="0 290.1 612 598.4" enable-background="new 0 290.1 612 598.4" xml:space="preserve">
<g id="Layer_4">
	<path d="M549.1,489.2c11.9,31.4,19.5,64.3,19.5,100.2c0,148.1-121.3,269.4-269.4,269.4S29.8,737.5,29.8,589.4S151.1,320,299.2,320
		c67.4,0,128.7,25.4,176.6,65.8l20.9-20.9c-52.4-46.3-121.3-74.8-197.5-74.8C134.6,290.1-0.1,424.8-0.1,589.4
		s134.7,299.3,299.3,299.3s299.3-134.8,299.3-299.3c0-43.4-9-85.3-26.9-122.7L549.1,489.2z"/>
</g>
<g id="Layer_2">
	<polygon points="591,338 612,358.9 297.7,673.2 191.4,568.5 213.9,547.4 297.7,631.3 	"/>
</g>
</svg>
