<?xml version="1.0" encoding="utf-8"?>
<!-- Generator: Adobe Illustrator 18.0.0, SVG Export Plug-In . SVG Version: 6.00 Build 0)  -->
<!DOCTYPE svg PUBLIC "-//W3C//DTD SVG 1.1//EN" "http://www.w3.org/Graphics/SVG/1.1/DTD/svg11.dtd">
<svg version="1.1" id="Layer_1" xmlns="http://www.w3.org/2000/svg" xmlns:xlink="http://www.w3.org/1999/xlink" x="0px" y="0px"
	 viewBox="0 270 612 612" enable-background="new 0 270 612 612" xml:space="preserve">
<path d="M557.5,381.8l-18.6,18.6l-18.6-18.6l-18.6-18.6l-18.6-18.6l18.6-18.6l9.3-9.3c16-16,41.2-16,55.9,0c16,16,16,41.2,0,55.9
	L557.5,381.8z M548.1,335.2c-5.3-5.3-13.3-5.3-18.6,0l-9.3,9.3l18.6,18.6l9.3-9.3C553.5,348.5,553.5,340.5,548.1,335.2z
	 M239.5,623.9l18.6,18.6l243.5-242.1l18.6,18.6L278.1,662.5l0,0l-99.8,42.6l42.6-99.8l0,0L463,363.1l18.6,18.6L239.5,623.9z
	 M306,296.6C151.7,296.6,26.6,421.7,26.6,576S151.7,855.4,306,855.4S585.4,730.3,585.4,576c0-49.2-13.3-97.1-35.9-137l20-20
	C596,465.6,612,518.8,612,576c0,169-137,306-306,306S0,745,0,576s137-306,306-306c53.2,0,103.8,13.3,147.7,38.6l-20,20
	C396.5,308.6,352.6,296.6,306,296.6z"/>
</svg>
