<?xml version="1.0" encoding="utf-8"?>
<!-- Generator: Adobe Illustrator 17.0.0, SVG Export Plug-In . SVG Version: 6.00 Build 0)  -->
<!DOCTYPE svg PUBLIC "-//W3C//DTD SVG 1.1//EN" "http://www.w3.org/Graphics/SVG/1.1/DTD/svg11.dtd">
<svg version="1.1" id="Layer_1" xmlns="http://www.w3.org/2000/svg" xmlns:xlink="http://www.w3.org/1999/xlink" x="0px" y="0px"
	 width="16px" height="16px" viewBox="0 0 16 16" enable-background="new 0 0 16 16" xml:space="preserve">
<path d="M14.832,3.306h-3.288V2.171c0-0.93-0.757-1.687-1.688-1.687H6.144c-0.931,0-1.688,0.757-1.688,1.687v1.135H1.168
	C0.524,3.306,0,3.838,0,4.492v8.912c0,0.645,0.513,1.149,1.168,1.149h13.664c0.655,0,1.168-0.505,1.168-1.149V4.492
	C16,3.838,15.476,3.306,14.832,3.306z M14.11,8.231H1.89V5.195h12.22V8.231z M1.89,10.121h3.925
	c0.093,0.424,0.472,0.743,0.923,0.743h2.525c0.451,0,0.83-0.319,0.923-0.743h3.925v2.542H1.89V10.121z M6.346,2.373h3.309v0.933
	H6.346V2.373z"/>
</svg>
