<?xml version="1.0" encoding="utf-8"?>
<!-- Generator: Adobe Illustrator 17.1.0, SVG Export Plug-In . SVG Version: 6.00 Build 0)  -->
<!DOCTYPE svg PUBLIC "-//W3C//DTD SVG 1.1//EN" "http://www.w3.org/Graphics/SVG/1.1/DTD/svg11.dtd">
<svg version="1.1" id="Layer_1" xmlns="http://www.w3.org/2000/svg" xmlns:xlink="http://www.w3.org/1999/xlink" x="0px" y="0px"
	 viewBox="0 0 16 16" enable-background="new 0 0 16 16" xml:space="preserve">
<path d="M12.6,2L8,6.6L3.4,2C3.2,1.8,2.9,1.8,2.7,2L2,2.7C1.8,2.9,1.8,3.2,2,3.4L6.6,8L2,12.6c-0.2,0.2-0.2,0.5,0,0.7L2.7,14
	c0.2,0.2,0.5,0.2,0.7,0L8,9.4l4.6,4.6c0.2,0.2,0.5,0.2,0.7,0l0.7-0.7c0.2-0.2,0.2-0.5,0-0.7L9.4,8L14,3.4c0.2-0.2,0.2-0.5,0-0.7
	L13.3,2C13.1,1.8,12.8,1.8,12.6,2z"/>
</svg>
