<?xml version="1.0" encoding="utf-8"?>
<!-- Generator: Adobe Illustrator 17.1.0, SVG Export Plug-In . SVG Version: 6.00 Build 0)  -->
<!DOCTYPE svg PUBLIC "-//W3C//DTD SVG 1.1//EN" "http://www.w3.org/Graphics/SVG/1.1/DTD/svg11.dtd">
<svg version="1.1" id="Layer_1" xmlns="http://www.w3.org/2000/svg" xmlns:xlink="http://www.w3.org/1999/xlink" x="0px" y="0px"
	 viewBox="0 0 16 16" enable-background="new 0 0 16 16" xml:space="preserve">
<path d="M7,1.5V7H1.5C1.2,7,1,7.2,1,7.5v1C1,8.8,1.2,9,1.5,9H7v5.5C7,14.8,7.2,15,7.5,15h1C8.8,15,9,14.8,9,14.5V9h5.5
	C14.8,9,15,8.8,15,8.5v-1C15,7.2,14.8,7,14.5,7H9V1.5C9,1.2,8.8,1,8.5,1h-1C7.2,1,7,1.2,7,1.5z"/>
</svg>
