<?xml version="1.0" encoding="UTF-8" standalone="no"?>
<!-- Generator: Adobe Illustrator 16.0.2, SVG Export Plug-In . SVG Version: 6.00 Build 0)  -->

<svg
   xmlns:dc="http://purl.org/dc/elements/1.1/"
   xmlns:cc="http://creativecommons.org/ns#"
   xmlns:rdf="http://www.w3.org/1999/02/22-rdf-syntax-ns#"
   xmlns:svg="http://www.w3.org/2000/svg"
   xmlns="http://www.w3.org/2000/svg"
   xmlns:sodipodi="http://sodipodi.sourceforge.net/DTD/sodipodi-0.dtd"
   xmlns:inkscape="http://www.inkscape.org/namespaces/inkscape"
   version="1.1"
   id="Capa_1"
   x="0px"
   y="0px"
   width="106.059px"
   height="106.059px"
   viewBox="0 0 106.059 106.059"
   enable-background="new 0 0 106.059 106.059"
   xml:space="preserve"
   inkscape:version="0.91 r13725"
   sodipodi:docname="neutral.svg"><metadata
     id="metadata15"><rdf:RDF><cc:Work
         rdf:about=""><dc:format>image/svg+xml</dc:format><dc:type
           rdf:resource="http://purl.org/dc/dcmitype/StillImage" /></cc:Work></rdf:RDF></metadata><defs
     id="defs13" /><sodipodi:namedview
     pagecolor="#ffffff"
     bordercolor="#666666"
     borderopacity="1"
     objecttolerance="10"
     gridtolerance="10"
     guidetolerance="10"
     inkscape:pageopacity="0"
     inkscape:pageshadow="2"
     inkscape:window-width="1920"
     inkscape:window-height="1017"
     id="namedview11"
     showgrid="false"
     inkscape:zoom="4.4503532"
     inkscape:cx="49.41103"
     inkscape:cy="49.876402"
     inkscape:window-x="-8"
     inkscape:window-y="-8"
     inkscape:window-maximized="1"
     inkscape:current-layer="Capa_1" /><g
     id="g3" /><g
     id="g7"><path
       id="path9"
       d="m 76.155,68.857 c 0,1.467 -1.35,2.667 -3,2.667 l -40.25,0 c -1.65,0 -3,-1.2 -3,-2.667 0,-1.467 1.35,-2.667 3,-2.667 l 40.25,0 c 1.65,0 3,1.2 3,2.667 z M 90.547,15.518 C 69.858,-5.172 36.2,-5.172 15.515,15.513 -5.172,36.198 -5.17,69.858 15.517,90.547 36.2,111.231 69.857,111.231 90.545,90.543 111.231,69.858 111.229,36.2 90.547,15.518 Z m -5.789,69.24 C 67.264,102.252 38.798,102.254 21.302,84.76 3.804,67.264 3.806,38.794 21.302,21.3 38.797,3.807 67.262,3.805 84.76,21.302 102.254,38.796 102.252,67.266 84.758,84.758 Z M 33.241,38.671 c 0,-3.424 2.776,-6.201 6.2,-6.201 3.423,0 6.2,2.776 6.2,6.201 0,3.426 -2.777,6.202 -6.2,6.202 -3.424,0 -6.2,-2.776 -6.2,-6.202 z m 28.117,0 c 0,-3.424 2.779,-6.201 6.203,-6.201 3.422,0 6.199,2.776 6.199,6.201 0,3.426 -2.775,6.202 -6.199,6.202 -3.424,0 -6.203,-2.776 -6.203,-6.202 z" /></g></svg>