<?xml version="1.0" encoding="utf-8"?>
<!-- Generator: Adobe Illustrator 18.1.0, SVG Export Plug-In . SVG Version: 6.00 Build 0)  -->
<!DOCTYPE svg PUBLIC "-//W3C//DTD SVG 1.1//EN" "http://www.w3.org/Graphics/SVG/1.1/DTD/svg11.dtd">
<svg version="1.1" id="Layer_1" xmlns="http://www.w3.org/2000/svg" xmlns:xlink="http://www.w3.org/1999/xlink" x="0px" y="0px"
	 viewBox="9 0 594 792" enable-background="new 9 0 594 792" xml:space="preserve">
<g>
	<g>
		<polygon fill="#DDDBD9" points="603,792 9,792 9,0 405,0 603,198 		"/>
		<polygon fill="#A6A4A3" points="405,0 405,198 603,198 		"/>
	</g>
	<g>
		<g>
			<rect x="256.5" fill="#8F8275" width="49.5" height="49.5"/>
			<rect x="306" y="49.5" fill="#8F8275" width="49.5" height="49.5"/>
			<rect x="256.5" y="99" fill="#8F8275" width="49.5" height="49.5"/>
			<rect x="306" y="148.5" fill="#8F8275" width="49.5" height="49.5"/>
			<rect x="256.5" y="198" fill="#8F8275" width="49.5" height="49.5"/>
			<rect x="306" y="247.5" fill="#8F8275" width="49.5" height="49.5"/>
			<rect x="256.5" y="297" fill="#8F8275" width="49.5" height="49.5"/>
			<rect x="256.5" y="396" fill="#8F8275" width="49.5" height="49.5"/>
			<rect x="306" y="445.5" fill="#8F8275" width="49.5" height="49.5"/>
			<rect x="256.5" y="495" fill="#8F8275" width="49.5" height="49.5"/>
			<rect x="306" y="346.5" fill="#8F8275" width="49.5" height="49.5"/>
		</g>
	</g>
</g>
</svg>
