<?xml version="1.0" encoding="utf-8"?>
<!-- Generator: Adobe Illustrator 18.1.0, SVG Export Plug-In . SVG Version: 6.00 Build 0)  -->
<!DOCTYPE svg PUBLIC "-//W3C//DTD SVG 1.1//EN" "http://www.w3.org/Graphics/SVG/1.1/DTD/svg11.dtd">
<svg version="1.1" id="Layer_1" xmlns="http://www.w3.org/2000/svg" xmlns:xlink="http://www.w3.org/1999/xlink" x="0px" y="0px"
	 viewBox="0 337.7 612 117.1" enable-background="new 0 337.7 612 117.1" xml:space="preserve">
<path fill="#FFFFFF" d="M29.8,442c-3.1-1-6.2-2.1-8.7-3.6s-4.6-3.1-6.2-5.1s-3.1-3.6-4.6-5.1c-1.5-1.5-3.1-2.1-4.6-2.1
	c-1,0-2.1,0.5-3.6,1.5c-1.5,0.5-2.1,2.1-2.1,3.6c0,1,0.5,1.5,1,2.6s1,1.5,1.5,2.6c1,1.5,2.6,3.6,4.6,5.6c2.1,2.1,4.6,4.1,7.7,6.2
	c3.1,2.1,6.7,3.6,10.8,4.6c4.1,1,8.7,2.1,13.9,2.1c6.7,0,12.3-1,16.9-2.6c5.1-2.1,9.2-4.1,12.3-7.2c3.6-3.1,5.6-6.7,7.7-10.3
	c1.5-4.1,2.6-7.7,2.6-12.3c0-5.6-1-10.3-3.1-13.9c-1.5-4.1-4.1-7.2-7.2-9.2c-3.1-2.1-6.7-4.1-10.3-5.6c-3.6-1.5-7.7-2.6-11.3-3.6
	c-4.6-1-8.7-2.1-12.8-3.6c-3.6-1-7.2-2.6-9.8-4.1s-5.1-3.6-6.7-6.2c-1.5-2.1-2.6-5.1-2.6-8.2c0-2.6,0.5-5.1,1.5-7.2
	c1-2.6,2.6-4.6,4.6-6.2c2.1-1.5,4.6-3.1,7.7-4.1s6.2-1.5,10.3-1.5c3.6,0,6.7,0.5,9.2,1c2.6,0.5,4.6,1.5,6.7,2.6
	c2.1,1,3.6,2.1,4.6,2.6c1,1,2.6,1.5,3.1,2.1s1.5,1,2.1,1c0.5,0.5,1.5,0.5,3.1,0.5c1.5,0,2.6-0.5,3.6-1.5c1-1,1.5-2.1,1.5-4.1
	c0-2.1-1-3.6-3.1-5.1c-1-1-2.6-2.1-4.6-3.1c-1.5-1-4.1-2.1-6.2-3.1c-2.6-1-5.1-2.1-8.2-2.6c-3.6-1-7.2-1.5-11.3-1.5
	c-5.1,0-9.8,0.5-14.4,2.1c-4.1,1.5-7.7,3.6-11.3,6.2c-3.1,3.1-5.6,6.2-7.7,9.8c-1.5,3.6-2.6,8.2-2.6,12.8c0,5.1,1,9.2,3.1,12.8
	s4.6,6.2,7.7,8.7c3.1,2.6,6.7,4.1,10.3,5.6c3.6,1.5,7.2,2.6,10.3,3.6c5.1,1.5,9.8,2.6,13.9,4.1c4.1,1.5,7.2,3.1,10.3,4.6
	c2.6,1.5,4.6,4.1,6.2,6.2c1.5,2.6,2.1,5.6,2.1,9.2c0,3.1-0.5,5.6-2.1,8.2c-1.5,2.6-3.6,4.6-5.6,6.7c-2.6,2.1-5.1,3.1-8.2,4.1
	s-6.7,1.5-10.3,1.5C37,443.5,32.9,443,29.8,442z"/>
<path fill="#FFFFFF" d="M182.3,389.1h-64.7v-44.2c0-1.5-0.5-2.6-1.5-4.1c-1-1-2.6-1.5-4.1-1.5c-1.5,0-3.1,0.5-4.1,1.5
	c-1,1-1.5,2.6-1.5,4.1v102.7c0,1.5,0.5,2.6,1.5,4.1c1,1,2.6,1.5,4.1,1.5c1.5,0,3.1-0.5,4.1-1.5c1-1,1.5-2.6,1.5-4.1v-48.3h64.7v47.7
	c0,1.5,0.5,2.6,1.5,4.1c1,1,2.6,1.5,4.1,1.5c1.5,0,3.1-0.5,4.1-1.5c1-1,1.5-2.6,1.5-4.1V344.4c0-1.5-0.5-2.6-1.5-4.1
	c-1-1-2.6-1.5-4.1-1.5c-1.5,0-3.1,0.5-4.1,1.5c-1,1-1.5,2.6-1.5,4.1V389.1z"/>
<path fill="#FFFFFF" d="M237.7,442.5v-43.1h39.5c1.5,0,2.6-0.5,4.1-1.5c1-1,1.5-2.1,1.5-3.6c0-1.5-0.5-2.6-1.5-3.6
	c-1-1-2.6-1.5-4.1-1.5h-39.5v-39.5h57c1.5,0,2.6-0.5,3.6-1.5c1-1,1.5-2.1,1.5-3.6c0-1.5-0.5-2.6-1.5-3.6s-2.1-1.5-3.6-1.5h-62.6
	c-1.5,0-3.1,0.5-4.1,1.5c-1,1-1.5,2.6-1.5,4.1v102.2c0,1.5,0.5,3.1,1.5,4.1c1,1,2.6,1.5,4.1,1.5h62.6c1.5,0,2.6-0.5,3.6-1.5
	s1.5-2.1,1.5-3.6c0-1.5-0.5-2.6-1.5-3.6s-2.1-1.5-3.6-1.5C294.7,442.5,237.7,442.5,237.7,442.5z"/>
<path fill="#FFFFFF" d="M336.8,407.6h24.1l28.8,41.6c1.5,2.6,3.6,4.1,6.2,4.1c1.5,0,3.1-0.5,4.1-1.5c1-1,1.5-2.1,1.5-3.6
	c0-1,0-1.5-0.5-2.6s-1-2.1-2.1-3.6l-25.7-35.4c8.7-2.1,15.4-6.2,20-11.8c4.1-5.6,6.7-12.3,6.7-20.5c0-10.8-3.1-19-9.8-25.2
	c-6.2-6.2-15.9-9.2-28.2-9.2h-30.8c-1.5,0-3.1,0.5-4.1,1.5c-1,1-1.5,2.6-1.5,4.1v102.2c0,1.5,0.5,2.6,1.5,4.1c1,1,2.6,1.5,4.1,1.5
	s3.1-0.5,4.1-1.5s1.5-2.6,1.5-4.1L336.8,407.6L336.8,407.6z M336.8,397.3v-47.7h24.6c8.7,0,15.4,2.1,20,6.2c4.6,4.1,7.2,10.3,7.2,18
	c0,3.6-0.5,6.7-1.5,9.2c-1,3.1-2.6,5.1-4.6,7.7c-2.1,2.1-4.6,3.6-8.2,5.1c-3.6,1-7.2,2.1-12.3,2.1h-25.2V397.3z"/>
<path fill="#FFFFFF" d="M434.4,339.3c-1.5,0-3.1,0.5-4.1,1.5c-1,1-1.5,2.6-1.5,4.1v102.7c0,1.5,0.5,2.6,1.5,4.1c1,1,2.6,1.5,4.1,1.5
	s3.1-0.5,4.1-1.5c1-1,1.5-2.6,1.5-4.1v-34.9h26.2c6.2,0,11.8-1,16.4-2.6c4.6-1.5,8.7-4.1,12.3-7.2c3.6-3.1,6.2-6.7,7.7-11.3
	c1.5-4.6,2.6-9.2,2.6-14.9c0-11.8-3.1-20.5-9.8-27.2c-6.7-6.7-15.9-9.8-28.8-9.8h-32.3V339.3z M440,402.4v-52.9h25.7
	c9.2,0,16.4,2.6,21.1,7.2c4.6,4.6,7.2,11.3,7.2,20c0,3.6-0.5,7.2-1.5,10.3s-2.6,6.2-5.1,8.2c-2.1,2.1-5.1,4.1-8.7,5.6
	c-3.6,1.5-7.7,2.1-12.8,2.1H440V402.4z"/>
<path fill="#FFFFFF" d="M598.7,444.5c1,3.1,2.1,5.6,3.1,6.7c1,1,2.1,1.5,4.1,1.5c1.5,0,3.1-0.5,4.1-1.5c1-1,2.1-2.1,2.1-4.1
	c0-0.5,0-1.5-0.5-2.6c-0.5-1-1-2.6-2.1-5.1l-39.5-94c-1.5-4.1-4.1-6.2-7.2-6.2c-1.5,0-3.1,0.5-4.1,1.5s-2.1,2.6-3.1,4.1l-39,94.5
	c-1,2.6-2.1,4.6-2.1,5.6c-0.5,1-0.5,2.1-0.5,2.6c0,1.5,0.5,2.6,1.5,3.6c1,1,2.6,1.5,3.6,1.5c1,0,2.1,0,3.1-0.5
	c1-0.5,1.5-1.5,2.1-3.1l10.8-26.7h54.4L598.7,444.5z M562.7,354.7l23.1,57.5h-46.7L562.7,354.7z"/>
</svg>
