<?xml version="1.0" encoding="utf-8"?>
<!-- Generated by IcoMoon.io -->
<!DOCTYPE svg PUBLIC "-//W3C//DTD SVG 1.1//EN" "http://www.w3.org/Graphics/SVG/1.1/DTD/svg11.dtd">

<svg version="1.1" xmlns="http://www.w3.org/2000/svg" xmlns:xlink="http://www.w3.org/1999/xlink" width="1455" height="64" viewBox="0 0 1455 64">
<g transform="translate(0 0)">
	<path d="M6 0h24l6 8h30l4 4v52h-70v-52l4-4z" fill="rgb(100, 154, 192)"></path>
	<path d="M0 14h70v50h-70v-50z" fill="rgb(131, 187, 224)"></path>
</g>
<g transform="translate(80 0)">
	<path d="M6 0h24l6 8h30l4 4v52h-70v-52l4-4z" fill="rgb(132, 140, 161)"></path>
	<path d="M0 14h70v50h-70v-50z" fill="rgb(163, 169, 183)"></path>
</g>
<g transform="translate(160 0)">
	<path d="M48 64h-48v-64h32l16 16z" fill="rgb(48, 123, 170)"></path>
	<path d="M32 0v16h16z" fill="rgb(41, 91, 122)"></path>
	<path d="M12 30.004h24v2.004h-24v-2.004z" fill="rgb(255, 255, 255)"></path>
	<path d="M12 36h24v2.004h-24v-2.004z" fill="rgb(255, 255, 255)"></path>
	<path d="M12 42.004h24v2.004h-24v-2.004z" fill="rgb(255, 255, 255)"></path>
	<path d="M12 48h12v2.004h-12v-2.004z" fill="rgb(255, 255, 255)"></path>
</g>
<g transform="translate(240 0)">
	<path d="M48 64h-48v-64h32l16 16z" fill="rgb(143, 130, 117)"></path>
	<path d="M32 0v16h16z" fill="rgb(107, 97, 88)"></path>
	<path d="M34.004 26.004h-22.004v24h24.008v-24.008h-2.004zM34.004 48h-20v-20h20v20z" fill="rgb(255, 255, 255)"></path>
	<path d="M32 32c0 1.656-1.342 2.998-2.998 2.998s-2.998-1.342-2.998-2.998c0-1.656 1.342-2.998 2.998-2.998s2.998 1.342 2.998 2.998z" fill="rgb(255, 255, 255)"></path>
	<path d="M16 46.004h16v-4l-2.998-2.602-5.002 1.996-5.204-6.4-2.796 5.002z" fill="rgb(255, 255, 255)"></path>
</g>
<g transform="translate(320 0)">
	<path d="M48 64h-48v-64h32l16 16z" fill="rgb(221, 54, 51)"></path>
	<path d="M32 0v16h16z" fill="rgb(166, 40, 38)"></path>
	<path d="M12 30.004h24v2.004h-24v-2.004z" fill="rgb(255, 255, 255)"></path>
	<path d="M12 36h24v2.004h-24v-2.004z" fill="rgb(255, 255, 255)"></path>
	<path d="M12 42.004h24v2.004h-24v-2.004z" fill="rgb(255, 255, 255)"></path>
	<path d="M12 48h12v2.004h-12v-2.004z" fill="rgb(255, 255, 255)"></path>
</g>
<g transform="translate(400 0)">
	<path d="M48 64h-48v-64h32l16 16z" fill="rgb(250, 160, 38)"></path>
	<path d="M32 0v16h16z" fill="rgb(187, 120, 28)"></path>
	<path d="M36 26.004h-18.004v20.008h20.008v-20.008h-2.004zM36 44h-16v-16h16v16z" fill="rgb(255, 255, 255)"></path>
	<path d="M30.004 46.004v4h-16v-16h4v-2.004h-6.004v20.008h20v-6.004h-1.996z" fill="rgb(255, 255, 255)"></path>
</g>
<g transform="translate(480 0)">
	<path d="M48 64h-48v-64h32l16 16z" fill="rgb(190, 203, 211)"></path>
	<path d="M32 0v16h16z" fill="rgb(142, 152, 158)"></path>
	<path d="M12 30.004h24v2.004h-24v-2.004z" fill="rgb(255, 255, 255)"></path>
	<path d="M12 36h24v2.004h-24v-2.004z" fill="rgb(255, 255, 255)"></path>
	<path d="M12 42.004h24v2.004h-24v-2.004z" fill="rgb(255, 255, 255)"></path>
	<path d="M12 48h12v2.004h-12v-2.004z" fill="rgb(255, 255, 255)"></path>
</g>
<g transform="translate(560 0)">
	<path d="M48 64h-48v-64h32l16 16z" fill="rgb(75, 62, 93)"></path>
	<path d="M32 0v16h16z" fill="rgb(138, 129, 150)"></path>
	<path d="M6.004 6.004h4v4h-4v-4z" fill="rgb(255, 255, 255)"></path>
	<path d="M6.004 18.004h4v4h-4v-4z" fill="rgb(255, 255, 255)"></path>
	<path d="M6.004 30.004h4v4h-4v-4z" fill="rgb(255, 255, 255)"></path>
	<path d="M6.004 42.004h4v4h-4v-4z" fill="rgb(255, 255, 255)"></path>
	<path d="M6.004 54.004h4v4h-4v-4z" fill="rgb(255, 255, 255)"></path>
	<path d="M38.004 18.004h4v4h-4v-4z" fill="rgb(255, 255, 255)"></path>
	<path d="M38.004 30.004h4v4h-4v-4z" fill="rgb(255, 255, 255)"></path>
	<path d="M38.004 42.004h4v4h-4v-4z" fill="rgb(255, 255, 255)"></path>
	<path d="M38.004 54.004h4v4h-4v-4z" fill="rgb(255, 255, 255)"></path>
</g>
<g transform="translate(640 0)">
	<path d="M48 64h-48v-64h32l16 16z" fill="rgb(141, 166, 22)"></path>
	<path d="M32 0v16h16z" fill="rgb(106, 124, 16)"></path>
	<path d="M16 48v-17.996h-1.996v20h20v-2.004z" fill="rgb(255, 255, 255)"></path>
	<path d="M30.004 30.004h2.004v16h-2.004v-16z" fill="rgb(255, 255, 255)"></path>
	<path d="M26.004 36h2.004v10.004h-2.004v-10.004z" fill="rgb(255, 255, 255)"></path>
	<path d="M22.004 34.004h2.004v12h-2.004v-12z" fill="rgb(255, 255, 255)"></path>
	<path d="M18.004 40h2.004v6.004h-2.004v-6.004z" fill="rgb(255, 255, 255)"></path>
</g>
<g transform="translate(720 0)">
	<path d="M48 64h-48v-64h32l16 16z" fill="rgb(221, 219, 217)"></path>
	<path d="M32 0v16h16z" fill="rgb(166, 164, 163)"></path>
	<path d="M20 0h4v4h-4v-4z" fill="rgb(143, 130, 117)"></path>
	<path d="M24 4h4v4h-4v-4z" fill="rgb(143, 130, 117)"></path>
	<path d="M20 8h4v4h-4v-4z" fill="rgb(143, 130, 117)"></path>
	<path d="M24 12h4v4h-4v-4z" fill="rgb(143, 130, 117)"></path>
	<path d="M20 16h4v4h-4v-4z" fill="rgb(143, 130, 117)"></path>
	<path d="M24 20h4v4h-4v-4z" fill="rgb(143, 130, 117)"></path>
	<path d="M20 24h4v4h-4v-4z" fill="rgb(143, 130, 117)"></path>
	<path d="M20 32h4v4h-4v-4z" fill="rgb(143, 130, 117)"></path>
	<path d="M24 36h4v4h-4v-4z" fill="rgb(143, 130, 117)"></path>
	<path d="M20 40h4v4h-4v-4z" fill="rgb(143, 130, 117)"></path>
	<path d="M24 28h4v4h-4v-4z" fill="rgb(143, 130, 117)"></path>
</g>
<g transform="translate(800 0)">
	<path d="M16.287 57.004c-1.694-0.547-3.389-1.148-4.755-1.968s-2.514-1.694-3.389-2.787-1.694-1.968-2.514-2.787c-0.82-0.82-1.694-1.148-2.514-1.148-0.547 0-1.148 0.273-1.968 0.82-0.82 0.273-1.148 1.148-1.148 1.968 0 0.547 0.273 0.82 0.547 1.421s0.547 0.82 0.82 1.421 1.421 1.968 2.514 3.061c1.148 1.148 2.514 2.241 4.208 3.389s3.662 1.968 5.903 2.514c2.241 0.547 4.755 1.148 7.597 1.148 3.662 0 6.722-0.547 9.237-1.421 2.787-1.148 5.028-2.241 6.722-3.935 1.968-1.694 3.061-3.662 4.208-5.629 0.82-2.241 1.421-4.208 1.421-6.722 0-3.061-0.547-5.629-1.694-7.597-0.82-2.241-2.241-3.935-3.935-5.028-1.694-1.148-3.662-2.241-5.629-3.061s-4.208-1.421-6.176-1.968c-2.514-0.547-4.755-1.148-6.996-1.968-1.968-0.547-3.935-1.421-5.356-2.241s-2.787-1.968-3.662-3.389c-0.82-1.148-1.421-2.787-1.421-4.482 0-1.421 0.273-2.787 0.82-3.935 0.547-1.421 1.421-2.514 2.514-3.389 1.148-0.82 2.514-1.694 4.208-2.241s3.389-0.82 5.629-0.82c1.968 0 3.662 0.273 5.028 0.547 1.421 0.273 2.514 0.82 3.662 1.421 1.148 0.547 1.968 1.148 2.514 1.421 0.547 0.547 1.421 0.82 1.694 1.148s0.82 0.547 1.148 0.547c0.273 0.273 0.82 0.273 1.694 0.273 0.82 0 1.421-0.273 1.968-0.82s0.82-1.148 0.82-2.241c0-1.148-0.547-1.968-1.694-2.787-0.547-0.547-1.421-1.148-2.514-1.694-0.82-0.547-2.241-1.148-3.389-1.694-1.421-0.547-2.787-1.148-4.482-1.421-1.968-0.547-3.935-0.82-6.176-0.82-2.787 0-5.356 0.273-7.87 1.148-2.241 0.82-4.208 1.968-6.176 3.389-1.694 1.694-3.061 3.389-4.208 5.356-0.82 1.968-1.421 4.482-1.421 6.996 0 2.787 0.547 5.028 1.694 6.996s2.514 3.389 4.208 4.755c1.694 1.421 3.662 2.241 5.629 3.061s3.935 1.421 5.629 1.968c2.787 0.82 5.356 1.421 7.597 2.241s3.935 1.694 5.629 2.514c1.421 0.82 2.514 2.241 3.389 3.389 0.82 1.421 1.148 3.061 1.148 5.028 0 1.694-0.273 3.061-1.148 4.482-0.82 1.421-1.968 2.514-3.061 3.662-1.421 1.148-2.787 1.694-4.482 2.241s-3.662 0.82-5.629 0.82c-2.459-0.328-4.7-0.601-6.395-1.148z" fill="#444444"></path>
	<path d="M99.635 28.092h-35.361v-24.157c0-0.82-0.273-1.421-0.82-2.241-0.547-0.547-1.421-0.82-2.241-0.82s-1.694 0.273-2.241 0.82c-0.547 0.547-0.82 1.421-0.82 2.241v56.13c0 0.82 0.273 1.421 0.82 2.241 0.547 0.547 1.421 0.82 2.241 0.82s1.694-0.273 2.241-0.82c0.547-0.547 0.82-1.421 0.82-2.241v-26.398h35.361v26.070c0 0.82 0.273 1.421 0.82 2.241 0.547 0.547 1.421 0.82 2.241 0.82s1.694-0.273 2.241-0.82c0.547-0.547 0.82-1.421 0.82-2.241v-56.075c0-0.82-0.273-1.421-0.82-2.241-0.547-0.547-1.421-0.82-2.241-0.82s-1.694 0.273-2.241 0.82c-0.547 0.547-0.82 1.421-0.82 2.241v24.43z" fill="#444444"></path>
	<path d="M129.913 57.278v-23.556h21.588c0.82 0 1.421-0.273 2.241-0.82 0.547-0.547 0.82-1.148 0.82-1.968s-0.273-1.421-0.82-1.968c-0.547-0.547-1.421-0.82-2.241-0.82h-21.588v-21.588h31.153c0.82 0 1.421-0.273 1.968-0.82s0.82-1.148 0.82-1.968c0-0.82-0.273-1.421-0.82-1.968s-1.148-0.82-1.968-0.82h-34.214c-0.82 0-1.694 0.273-2.241 0.82s-0.82 1.421-0.82 2.241v55.857c0 0.82 0.273 1.694 0.82 2.241s1.421 0.82 2.241 0.82h34.214c0.82 0 1.421-0.273 1.968-0.82s0.82-1.148 0.82-1.968c0-0.82-0.273-1.421-0.82-1.968s-1.148-0.82-1.968-0.82c0-0.109-31.153-0.109-31.153-0.109z" fill="#444444"></path>
	<path d="M184.075 38.203h13.172l15.74 22.736c0.82 1.421 1.968 2.241 3.389 2.241 0.82 0 1.694-0.273 2.241-0.82s0.82-1.148 0.82-1.968c0-0.547 0-0.82-0.273-1.421s-0.547-1.148-1.148-1.968l-14.046-19.348c4.755-1.148 8.417-3.389 10.931-6.449 2.241-3.061 3.662-6.722 3.662-11.204 0-5.903-1.694-10.384-5.356-13.773-3.389-3.389-8.69-5.028-15.412-5.028h-16.834c-0.82 0-1.694 0.273-2.241 0.82s-0.82 1.421-0.82 2.241v55.857c0 0.82 0.273 1.421 0.82 2.241 0.547 0.547 1.421 0.82 2.241 0.82s1.694-0.273 2.241-0.82 0.82-1.421 0.82-2.241l0.055-21.916zM184.075 32.574v-26.070h13.445c4.755 0 8.417 1.148 10.931 3.389s3.935 5.629 3.935 9.838c0 1.968-0.273 3.662-0.82 5.028-0.547 1.694-1.421 2.787-2.514 4.208-1.148 1.148-2.514 1.968-4.482 2.787-1.968 0.547-3.935 1.148-6.722 1.148h-13.773v-0.328z" fill="#444444"></path>
	<path d="M237.418 0.874c-0.82 0-1.694 0.273-2.241 0.82s-0.82 1.421-0.82 2.241v56.13c0 0.82 0.273 1.421 0.82 2.241 0.547 0.547 1.421 0.82 2.241 0.82s1.694-0.273 2.241-0.82c0.547-0.547 0.82-1.421 0.82-2.241v-19.074h14.319c3.389 0 6.449-0.547 8.963-1.421 2.514-0.82 4.755-2.241 6.722-3.935s3.389-3.662 4.208-6.176c0.82-2.514 1.421-5.028 1.421-8.143 0-6.449-1.694-11.204-5.356-14.866s-8.69-5.356-15.74-5.356h-17.653v-0.219zM240.478 35.361v-28.912h14.046c5.028 0 8.963 1.421 11.532 3.935 2.514 2.514 3.935 6.176 3.935 10.931 0 1.968-0.273 3.935-0.82 5.629s-1.421 3.389-2.787 4.482c-1.148 1.148-2.787 2.241-4.755 3.061s-4.208 1.148-6.996 1.148h-14.155v-0.273z" fill="#444444"></path>
	<path d="M327.214 58.371c0.547 1.694 1.148 3.061 1.694 3.662 0.547 0.547 1.148 0.82 2.241 0.82 0.82 0 1.694-0.273 2.241-0.82s1.148-1.148 1.148-2.241c0-0.273 0-0.82-0.273-1.421-0.273-0.547-0.547-1.421-1.148-2.787l-21.588-51.375c-0.82-2.241-2.241-3.389-3.935-3.389-0.82 0-1.694 0.273-2.241 0.82s-1.148 1.421-1.694 2.241l-21.315 51.648c-0.547 1.421-1.148 2.514-1.148 3.061-0.273 0.547-0.273 1.148-0.273 1.421 0 0.82 0.273 1.421 0.82 1.968s1.421 0.82 1.968 0.82c0.547 0 1.148 0 1.694-0.273s0.82-0.82 1.148-1.694l5.903-14.593h29.732l5.028 12.133zM307.539 9.291l12.625 31.426h-25.524l12.898-31.426z" fill="#444444"></path>
</g>

</svg>
