<?xml version="1.0" encoding="utf-8"?>
<!-- Generated by IcoMoon.io -->
<!DOCTYPE svg PUBLIC "-//W3C//DTD SVG 1.1//EN" "http://www.w3.org/Graphics/SVG/1.1/DTD/svg11.dtd">
<svg version="1.1" xmlns="http://www.w3.org/2000/svg" xmlns:xlink="http://www.w3.org/1999/xlink" width="16" height="16" viewBox="0 0 16 16">
<path fill="#444444" d="M14.729 2.579h-5.632c-0.708 0-1.284 0.576-1.284 1.285v6.902c0 0.709 0.576 1.286 1.284 1.286h5.632c0.709 0 1.286-0.576 1.286-1.286v-6.902c0-0.709-0.577-1.285-1.286-1.285zM15.017 3.864v6.902c0 0.158-0.129 0.287-0.288 0.287h-5.632c-0.158 0-0.286-0.129-0.286-0.287v-6.902c0-0.158 0.128-0.287 0.286-0.287h5.632c0.159 0 0.288 0.128 0.288 0.287z"></path>
<path fill="#444444" d="M13.976 4.513h-4.125c-0.275 0-0.499 0.224-0.499 0.499s0.224 0.499 0.499 0.499h4.125c0.275 0 0.499-0.224 0.499-0.499s-0.224-0.499-0.499-0.499z"></path>
<path fill="#444444" d="M13.976 6.039h-4.125c-0.275 0-0.499 0.224-0.499 0.499s0.224 0.499 0.499 0.499h4.125c0.275 0 0.499-0.224 0.499-0.499s-0.224-0.499-0.499-0.499z"></path>
<path fill="#444444" d="M13.976 7.575h-4.125c-0.275 0-0.499 0.224-0.499 0.499s0.224 0.499 0.499 0.499h4.125c0.275 0 0.499-0.224 0.499-0.499s-0.224-0.499-0.499-0.499z"></path>
<path fill="#444444" d="M6.891 5.199v-0.385c0-0.636-0.517-1.153-1.153-1.153h-4.57c-0.636 0-1.153 0.517-1.153 1.153v0.385c0 0.636 0.517 1.153 1.153 1.153h4.57c0.636 0 1.153-0.517 1.153-1.153zM5.906 4.814v0.385c0 0.093-0.076 0.169-0.168 0.169h-4.57c-0.093 0-0.169-0.076-0.169-0.169v-0.385c0-0.093 0.076-0.168 0.169-0.168h4.57c0.093-0.001 0.168 0.075 0.168 0.168z"></path>
<path fill="#444444" d="M7.241 9.424c-0.003-0.016-0.011-0.047-0.028-0.082l-1.214-1.095c-0.198-0.171-0.526-0.144-0.693 0.053-0.086 0.1-0.128 0.227-0.118 0.358 0.008 0.102 0.045 0.195 0.107 0.273-0.276-0.095-0.513-0.232-0.707-0.409-0.637-0.586-0.657-1.474-0.657-1.481 0-0.271-0.221-0.492-0.493-0.493-0.271 0-0.492 0.221-0.492 0.492 0 0.053 0.011 1.315 0.969 2.201 0.422 0.389 0.956 0.644 1.593 0.758l-0.149 0.128c-0.1 0.085-0.161 0.205-0.171 0.336s0.032 0.258 0.119 0.358c0.094 0.109 0.229 0.171 0.373 0.171 0.116 0 0.229-0.041 0.321-0.119l1.115-0.963c0.035-0.034 0.059-0.070 0.080-0.104l0.034-0.068c0.017-0.044 0.022-0.084 0.022-0.092l0.014-0.090-0.002-0.042c-0.005-0.041-0.016-0.072-0.023-0.090z"></path>
</svg>
