<?xml version="1.0" encoding="utf-8"?>
<!-- Generated by IcoMoon.io -->
<!DOCTYPE svg PUBLIC "-//W3C//DTD SVG 1.1//EN" "http://www.w3.org/Graphics/SVG/1.1/DTD/svg11.dtd">
<svg version="1.1" xmlns="http://www.w3.org/2000/svg" xmlns:xlink="http://www.w3.org/1999/xlink" width="16" height="16" viewBox="0 0 16 16">
<path fill="#444444" d="M13.741 10.492c-0.001 0-0.008 0-0.008 0-0.604-0.003-1.171-0.239-1.597-0.668s-0.659-0.997-0.656-1.6c0.005-1.242 1.019-2.252 2.26-2.252 1.255 0.004 2.265 1.022 2.26 2.267-0.005 1.243-1.019 2.253-2.259 2.253zM13.744 7.37c-0.478 0-0.864 0.385-0.865 0.859-0.001 0.23 0.087 0.446 0.25 0.61s0.378 0.254 0.608 0.254l0.004 0.7v-0.7c0.473 0 0.859-0.384 0.86-0.858 0.002-0.475-0.382-0.863-0.857-0.865z"></path>
<path fill="#444444" d="M8 10.47c-0.001 0-0.007 0-0.008 0-0.604-0.003-1.171-0.239-1.596-0.668s-0.658-0.998-0.656-1.601c0.004-1.241 1.018-2.251 2.259-2.251 0.612 0.002 1.179 0.239 1.604 0.667s0.659 0.997 0.656 1.6c-0.004 1.243-1.017 2.253-2.259 2.253zM8.003 7.348c-0.476 0-0.863 0.385-0.864 0.858-0.001 0.231 0.087 0.447 0.25 0.611 0.161 0.164 0.378 0.254 0.608 0.254l0.003 0.7v-0.7c0.473 0 0.859-0.384 0.861-0.858 0.001-0.231-0.088-0.447-0.25-0.61s-0.378-0.254-0.608-0.255z"></path>
<path fill="#444444" d="M2.26 10.455c-0.001 0-0.007 0-0.008 0-1.247-0.005-2.257-1.023-2.252-2.268 0.004-1.242 1.018-2.252 2.259-2.252 0.612 0.002 1.179 0.239 1.604 0.667 0.426 0.429 0.659 0.998 0.657 1.6-0.005 1.243-1.019 2.253-2.26 2.253zM2.262 7.333c-0.476 0-0.862 0.385-0.864 0.858-0.002 0.476 0.383 0.864 0.859 0.865l0.003 0.7v-0.7c0.473 0 0.86-0.384 0.862-0.858 0.001-0.231-0.088-0.447-0.251-0.611s-0.378-0.253-0.609-0.254z"></path>
</svg>
