<?xml version="1.0" encoding="utf-8"?>
<!-- Generated by IcoMoon.io -->
<!DOCTYPE svg PUBLIC "-//W3C//DTD SVG 1.1//EN" "http://www.w3.org/Graphics/SVG/1.1/DTD/svg11.dtd">
<svg version="1.1" xmlns="http://www.w3.org/2000/svg" xmlns:xlink="http://www.w3.org/1999/xlink" width="16" height="16" viewBox="0 0 16 16">
<path fill="#444444" d="M10 10h2v2h-2v-2z"></path>
<path fill="#444444" d="M5 1.5v-1c0-0.276-0.224-0.5-0.5-0.5h-1c-0.276 0-0.5 0.224-0.5 0.5v1c0 0.276 0.224 0.5 0.5 0.5h1c0.276 0 0.5-0.224 0.5-0.5z"></path>
<path fill="#444444" d="M10 7h2v2h-2v-2z"></path>
<path fill="#444444" d="M13 1.5v-1c0-0.276-0.224-0.5-0.5-0.5h-1c-0.276 0-0.5 0.224-0.5 0.5v1c0 0.276 0.224 0.5 0.5 0.5h1c0.276 0 0.5-0.224 0.5-0.5z"></path>
<path fill="#444444" d="M13.5 3h-3c-0.276 0-0.5-0.224-0.5-0.5v-2c0-0.276-0.224-0.5-0.5-0.5h-3c-0.276 0-0.5 0.224-0.5 0.5v2c0 0.276-0.224 0.5-0.5 0.5h-3c-0.276 0-0.5-0.224-0.5-0.5v-2c0-0.276-0.224-0.5-0.5-0.5h-0.5c-0.552 0-1 0.447-1 1v14c0 0.553 0.448 1 1 1h14c0.552 0 1-0.447 1-1v-14c0-0.553-0.448-1-1-1h-0.5c-0.276 0-0.5 0.224-0.5 0.5v2c0 0.276-0.224 0.5-0.5 0.5zM14 14h-12v-9h12v9z"></path>
<path fill="#444444" d="M4 7h2v2h-2v-2z"></path>
<path fill="#444444" d="M7 7h2v2h-2v-2z"></path>
<path fill="#444444" d="M4 10h2v2h-2v-2z"></path>
<path fill="#444444" d="M7 10h2v2h-2v-2z"></path>
</svg>
