<?xml version="1.0" encoding="utf-8"?>
<!-- Generated by IcoMoon.io -->
<!DOCTYPE svg PUBLIC "-//W3C//DTD SVG 1.1//EN" "http://www.w3.org/Graphics/SVG/1.1/DTD/svg11.dtd">
<svg version="1.1" xmlns="http://www.w3.org/2000/svg" xmlns:xlink="http://www.w3.org/1999/xlink" width="16" height="16" viewBox="0 0 16 16">
<path fill="#444444" d="M6.379 11.454c-0.004-0.016-0.011-0.045-0.027-0.080l-1.177-1.061c-0.193-0.166-0.51-0.14-0.672 0.051-0.083 0.097-0.124 0.22-0.114 0.347 0.007 0.098 0.044 0.189 0.104 0.264-0.268-0.092-0.498-0.224-0.686-0.397-0.619-0.567-0.638-1.428-0.638-1.435 0-0.263-0.214-0.477-0.478-0.478s-0.477 0.214-0.477 0.477c0 0.051 0.011 1.275 0.939 2.134 0.409 0.377 0.927 0.624 1.544 0.735l-0.145 0.124c-0.097 0.082-0.156 0.198-0.165 0.326s0.031 0.25 0.115 0.348c0.091 0.106 0.222 0.166 0.361 0.166 0.112 0 0.222-0.040 0.311-0.115l1.082-0.935c0.034-0.033 0.057-0.068 0.077-0.101l0.034-0.066c0.016-0.043 0.022-0.082 0.022-0.089l0.014-0.087-0.003-0.042c-0.004-0.039-0.015-0.069-0.021-0.086z"></path>
<path fill="#444444" d="M14.649 2.669h-6.15c-0.759 0-1.377 0.618-1.377 1.378v7.535c0 0.76 0.618 1.379 1.377 1.379h6.15c0.759 0 1.378-0.618 1.378-1.379v-7.535c0-0.76-0.619-1.378-1.378-1.378zM14.986 4.047v7.535c0 0.187-0.152 0.338-0.337 0.338h-6.15c-0.186 0-0.336-0.152-0.336-0.338v-7.535c0-0.186 0.151-0.338 0.336-0.338h6.15c0.185 0 0.337 0.152 0.337 0.338z"></path>
<path fill="#444444" d="M13.826 4.781h-4.503c-0.287 0-0.52 0.233-0.52 0.52 0 0.286 0.233 0.52 0.52 0.52h4.503c0.287 0 0.52-0.233 0.52-0.52s-0.233-0.52-0.52-0.52z"></path>
<path fill="#444444" d="M13.826 6.447h-4.503c-0.287 0-0.52 0.233-0.52 0.52 0 0.286 0.233 0.52 0.52 0.52h4.503c0.287 0 0.52-0.233 0.52-0.52s-0.233-0.52-0.52-0.52z"></path>
<path fill="#444444" d="M13.826 8.113h-4.503c-0.287 0-0.52 0.234-0.52 0.521s0.233 0.52 0.52 0.52h4.503c0.287 0 0.52-0.233 0.52-0.52s-0.233-0.521-0.52-0.521z"></path>
<path fill="#444444" d="M5.87 7.076v-4.634c0-0.568-0.463-1.031-1.031-1.031h-3.782c-0.568 0-1.030 0.463-1.030 1.031v4.634c0 0.569 0.462 1.031 1.030 1.031h3.782c0.568 0 1.031-0.462 1.031-1.031zM4.863 2.442l-0.024 4.658-3.805-0.024v-4.634c0-0.013 0.010-0.024 0.023-0.024l3.806 0.024z"></path>
<path fill="#444444" d="M1.929 4.544l2.031-0.008c0.204-0.001 0.368-0.227 0.367-0.505s-0.168-0.503-0.371-0.502l-2.031 0.009c-0.204 0-0.368 0.227-0.367 0.504 0.001 0.278 0.168 0.503 0.371 0.502z"></path>
<path fill="#444444" d="M3.962 5.221l-2.032 0.008c-0.203 0.001-0.368 0.228-0.367 0.505s0.168 0.503 0.371 0.502l2.031-0.009c0.204-0.001 0.369-0.227 0.368-0.504-0.001-0.278-0.168-0.503-0.371-0.502z"></path>
</svg>
