<?xml version="1.0" encoding="utf-8"?>
<!-- Generated by IcoMoon.io -->
<!DOCTYPE svg PUBLIC "-//W3C//DTD SVG 1.1//EN" "http://www.w3.org/Graphics/SVG/1.1/DTD/svg11.dtd">
<svg version="1.1" xmlns="http://www.w3.org/2000/svg" xmlns:xlink="http://www.w3.org/1999/xlink" width="16" height="16" viewBox="0 0 16 16">
<path fill="#444444" d="M15 0h-14c-0.553 0-1 0.447-1 1v14c0 0.553 0.447 1 1 1h14c0.553 0 1-0.447 1-1v-14c0-0.553-0.447-1-1-1zM14 14h-12v-12h12v12z"></path>
<path fill="#444444" d="M6.646 11.061c0.195 0.195 0.512 0.195 0.707 0l4.5-4.5c0.195-0.195 0.195-0.512 0-0.707l-0.707-0.707c-0.195-0.195-0.512-0.195-0.707 0l-3.439 3.439-1.439-1.44c-0.195-0.195-0.512-0.195-0.707 0l-0.708 0.708c-0.195 0.195-0.195 0.512 0 0.707l2.5 2.5z"></path>
</svg>
