<?xml version="1.0" encoding="utf-8"?>
<!-- Generator: Adobe Illustrator 17.0.0, SVG Export Plug-In . SVG Version: 6.00 Build 0)  -->
<!DOCTYPE svg PUBLIC "-//W3C//DTD SVG 1.1//EN" "http://www.w3.org/Graphics/SVG/1.1/DTD/svg11.dtd">
<svg version="1.1" id="Layer_1" xmlns="http://www.w3.org/2000/svg" xmlns:xlink="http://www.w3.org/1999/xlink" x="0px" y="0px"
	 width="16px" height="16px" viewBox="0 0 16 16" enable-background="new 0 0 16 16" xml:space="preserve">
<text transform="matrix(1 0 0 1 306 396)" font-family="'MyriadPro-Regular'" font-size="12">v-line</text>
<g>
	<path d="M8.384,12.636H3.489c0.472-1.939,2.214-3.34,4.262-3.34c1.141,0,2.221,0.435,3.042,1.227
		c0.197,0.188,0.454,0.292,0.725,0.292c0,0,0,0,0,0c0.287,0,0.555-0.114,0.753-0.32c0.195-0.201,0.299-0.467,0.294-0.747
		c-0.005-0.28-0.119-0.541-0.321-0.735c-0.477-0.46-1.01-0.838-1.591-1.128c0.727-0.861,1.145-2.022,1.145-3.237
		C11.799,2.085,9.983,0,7.75,0S3.702,2.085,3.702,4.648c0,1.218,0.419,2.379,1.147,3.239c-2.169,1.088-3.581,3.329-3.581,5.796
		c0,0.578,0.47,1.047,1.048,1.047h6.069c0.578,0,1.048-0.469,1.048-1.047S8.962,12.636,8.384,12.636z M5.797,4.648
		c0-1.407,0.876-2.553,1.954-2.553c1.077,0,1.953,1.145,1.953,2.553S8.827,7.2,7.75,7.2C6.673,7.2,5.797,6.055,5.797,4.648z"/>
	<path d="M14.38,13.212h-0.793v-0.793c0-0.367-0.298-0.665-0.665-0.665c-0.367,0-0.665,0.298-0.665,0.665v0.793h-0.793
		c-0.367,0-0.665,0.298-0.665,0.665s0.298,0.665,0.665,0.665h0.793v0.793c0,0.367,0.298,0.665,0.665,0.665
		c0.367,0,0.665-0.298,0.665-0.665v-0.793h0.793c0.367,0,0.665-0.298,0.665-0.665S14.746,13.212,14.38,13.212z"/>
</g>
</svg>
