<?xml version="1.0" encoding="utf-8"?>
<!-- Generated by IcoMoon.io -->
<!DOCTYPE svg PUBLIC "-//W3C//DTD SVG 1.1//EN" "http://www.w3.org/Graphics/SVG/1.1/DTD/svg11.dtd">
<svg version="1.1" xmlns="http://www.w3.org/2000/svg" xmlns:xlink="http://www.w3.org/1999/xlink" width="16" height="16" viewBox="0 0 16 16">
<path fill="#444444" d="M8 16c-4.411 0-8-3.589-8-8 0-4.412 3.589-8 8-8s8 3.589 8 8-3.589 8-8 8zM8 2.104c-3.251 0-5.896 2.645-5.896 5.896s2.645 5.896 5.896 5.896 5.896-2.645 5.896-5.896-2.646-5.896-5.896-5.896z"></path>
<path fill="#444444" d="M11.63 8c0 1.971-1.597 3.568-3.568 3.568s-3.568-1.597-3.568-3.568c0-1.971 1.597-3.568 3.568-3.568s3.568 1.597 3.568 3.568z"></path>
</svg>
