<?xml version="1.0" encoding="utf-8"?>
<!-- Generated by IcoMoon.io -->
<!DOCTYPE svg PUBLIC "-//W3C//DTD SVG 1.1//EN" "http://www.w3.org/Graphics/SVG/1.1/DTD/svg11.dtd">
<svg version="1.1" xmlns="http://www.w3.org/2000/svg" xmlns:xlink="http://www.w3.org/1999/xlink" width="16" height="16" viewBox="0 0 16 16">
<path fill="#444444" d="M11.633 0v2.993h-0.216c-0.050-0.402-0.133-0.742-0.249-1.021s-0.268-0.505-0.456-0.678c-0.188-0.173-0.417-0.298-0.687-0.376s-0.585-0.118-0.943-0.118h-1.797v9.75c0 0.784 0.085 1.274 0.254 1.468 0.232 0.264 0.599 0.395 1.101 0.395h0.442v0.348h-5.411v-0.348h0.452c0.54 0 0.922-0.163 1.148-0.489 0.138-0.195 0.207-0.653 0.207-1.374v-9.75h-1.534c-0.389 0-0.728 0.028-1.016 0.085s-0.533 0.163-0.734 0.32c-0.201 0.157-0.364 0.38-0.489 0.668s-0.22 0.662-0.282 1.12h-0.359v-2.993h10.569z"></path>
</svg>
