<?xml version="1.0" encoding="utf-8"?>
<!-- Generated by IcoMoon.io -->
<!DOCTYPE svg PUBLIC "-//W3C//DTD SVG 1.1//EN" "http://www.w3.org/Graphics/SVG/1.1/DTD/svg11.dtd">
<svg version="1.1" xmlns="http://www.w3.org/2000/svg" xmlns:xlink="http://www.w3.org/1999/xlink" width="16" height="16" viewBox="0 0 16 16">
<path fill="#444444" d="M5.017 14.557c-0.165 0-0.331-0.040-0.485-0.126-0.483-0.269-0.657-0.877-0.388-1.36l6.178-11.113c0.269-0.483 0.875-0.657 1.36-0.388 0.482 0.269 0.656 0.877 0.388 1.36l-6.178 11.113c-0.183 0.328-0.524 0.514-0.875 0.514z"></path>
<path fill="#444444" d="M2.958 7.438c-0.241 0-0.483-0.087-0.674-0.261l-1.958-1.942c-0.408-0.373-0.437-1.005-0.065-1.413 0.372-0.407 1.005-0.437 1.413-0.064l1.252 1.297 3.473-3.91c0.391-0.391 1.023-0.391 1.414 0s0.391 1.023 0 1.414l-4.148 4.586c-0.194 0.194-0.45 0.293-0.707 0.293z"></path>
<path fill="#444444" d="M14.080 12.666l1.627-1.627c0.391-0.391 0.391-1.023 0-1.414s-1.023-0.391-1.414 0l-1.627 1.627-1.627-1.627c-0.391-0.391-1.023-0.391-1.414 0s-0.391 1.023 0 1.414l1.627 1.627-1.627 1.627c-0.391 0.391-0.391 1.023 0 1.414 0.194 0.195 0.45 0.293 0.706 0.293s0.512-0.098 0.707-0.293l1.627-1.627 1.627 1.627c0.196 0.195 0.452 0.293 0.708 0.293s0.512-0.098 0.707-0.293c0.391-0.391 0.391-1.023 0-1.414l-1.627-1.627z"></path>
</svg>
